<svg width="141" height="60" viewBox="0 0 141 60" fill="none" xmlns="http://www.w3.org/2000/svg">
<path d="M56.4453 43.9411C56.4453 38.2678 61.0444 33.6687 66.7177 33.6687H135.927V54.2136H66.7177C61.0444 54.2136 56.4453 49.6144 56.4453 43.9411V43.9411Z" fill="#DCDFE8"/>
<path d="M60.5566 15.1782C60.5566 9.50489 65.1558 4.90576 70.8291 4.90576H122.223V25.4506H70.8291C65.1558 25.4506 60.5566 20.8515 60.5566 15.1782V15.1782Z" fill="#DCDFE8"/>
<path d="M0.259705 43.941C0.259705 35.2419 7.3117 28.1899 16.0108 28.1899H64.6671V59.6921H16.0108C7.31168 59.6921 0.259705 52.6401 0.259705 43.941V43.941Z" fill="#D26E58"/>
<path d="M8.48242 14.4935C8.48242 6.92904 14.6146 0.796875 22.179 0.796875H71.5195V28.19H22.179C14.6146 28.19 8.48242 22.0579 8.48242 14.4935V14.4935Z" fill="#4F6F9C"/>
<path d="M8.48242 44.6259C8.48242 39.3308 12.7749 35.0383 18.07 35.0383H64.6676V44.6259H8.48242V44.6259Z" fill="white"/>
<path d="M16.7051 14.4933C16.7051 9.95469 20.3844 6.27539 24.923 6.27539H71.5199V14.4933H16.7051V14.4933Z" fill="white"/>
<path d="M8.48242 44.626H64.6676V52.8439H16.7004C12.1617 52.8439 8.48242 49.1646 8.48242 44.626V44.626Z" fill="white"/>
<path d="M16.7051 14.4934H71.5199V22.7114H24.923C20.3844 22.7114 16.7051 19.0321 16.7051 14.4934V14.4934Z" fill="white"/>
<rect x="24.9258" y="43.2563" width="39.7407" height="1.36966" fill="#D9D9D9"/>
<rect x="31.7773" y="14.4934" width="39.7407" height="0.821795" fill="#D9D9D9"/>
<rect x="16.7051" y="44.626" width="8.22222" height="15.0662" fill="#323232"/>
<path d="M14.7849 43.2563H26.296L21.3627 54.2136L17.3886 50.7895L9.85156 54.2136L14.7849 43.2563Z" fill="#FD9E47"/>
<path d="M25.7478 14.4934H37.2589L32.3256 25.4507L28.3515 22.0265L20.8145 25.4507L25.7478 14.4934Z" fill="#D26E58"/>
<path d="M64.668 28.1899H136.614C138.505 28.1899 140.038 29.723 140.038 31.6141V31.6141C140.038 33.5052 138.505 35.0382 136.614 35.0382H64.668V28.1899Z" fill="#B94C40"/>
<path d="M71.5195 0.796875H123.595C125.108 0.796875 126.334 2.02331 126.334 3.53619V3.53619C126.334 5.04907 125.108 6.27551 123.595 6.27551H71.5195V0.796875Z" fill="#355D80"/>
<path d="M24.9258 52.844H136.613C138.504 52.844 140.037 54.377 140.037 56.2681V56.2681C140.037 58.1592 138.504 59.6923 136.613 59.6923H24.9258V52.844Z" fill="#B94C40"/>
<path d="M44.1113 22.7114H123.594C125.107 22.7114 126.334 23.9379 126.334 25.4507V25.4507C126.334 26.9636 125.107 28.1901 123.594 28.1901H44.1113V22.7114Z" fill="#355D80"/>
</svg>
