<svg width="103" height="48" viewBox="0 0 103 48" fill="none" xmlns="http://www.w3.org/2000/svg">
<path d="M10.3391 26.7128C10.3548 26.2287 10.9809 26.0475 11.2527 26.4484L14.2627 30.8875C14.3842 31.0668 14.6074 31.1474 14.8155 31.0872L19.9674 29.5963C20.4327 29.4616 20.7984 30.001 20.5011 30.3834L17.2095 34.6178C17.0765 34.7888 17.0688 35.026 17.1904 35.2053L20.2004 39.6443C20.4722 40.0452 20.0722 40.5598 19.6167 40.3952L14.5723 38.5732C14.3686 38.4996 14.1407 38.5655 14.0077 38.7366L10.7161 42.9709C10.4188 43.3534 9.80585 43.132 9.82157 42.6478L9.99567 37.2874C10.0027 37.0709 9.86953 36.8745 9.6658 36.8009L4.62147 34.9788C4.16592 34.8143 4.18707 34.1629 4.65235 34.0283L9.80427 32.5374C10.0123 32.4771 10.158 32.2898 10.165 32.0733L10.3391 26.7128Z" fill="#FD9E47"/>
<path d="M29.5501 21.1531C29.5658 20.669 30.1918 20.4878 30.4636 20.8887L33.4736 25.3278C33.5952 25.5071 33.8183 25.5877 34.0264 25.5275L39.1783 24.0366C39.6436 23.9019 40.0094 24.4413 39.7121 24.8237L36.4204 29.0581C36.2875 29.2291 36.2798 29.4663 36.4013 29.6456L39.4113 34.0847C39.6831 34.4855 39.2832 35.0001 38.8276 34.8355L33.7833 33.0135C33.5796 32.9399 33.3516 33.0058 33.2187 33.1769L29.927 37.4113C29.6297 37.7937 29.0168 37.5723 29.0325 37.0882L29.2066 31.7277C29.2136 31.5112 29.0805 31.3148 28.8767 31.2412L23.8324 29.4191C23.3769 29.2546 23.398 28.6032 23.8633 28.4686L29.0152 26.9777C29.2233 26.9174 29.3689 26.7301 29.376 26.5136L29.5501 21.1531Z" fill="#FD9E47"/>
<path d="M48.7629 15.5935C48.7787 15.1094 49.4047 14.9283 49.6765 15.3292L52.6865 19.7682C52.808 19.9475 53.0312 20.0281 53.2393 19.9679L58.3912 18.477C58.8565 18.3424 59.2222 18.8818 58.925 19.2642L55.6333 23.4986C55.5004 23.6696 55.4927 23.9067 55.6142 24.086L58.6242 28.5251C58.896 28.926 58.4961 29.4405 58.0405 29.276L52.9962 27.4539C52.7924 27.3803 52.5645 27.4463 52.4316 27.6173L49.1399 31.8517C48.8426 32.2341 48.2297 32.0127 48.2454 31.5286L48.4195 26.1681C48.4265 25.9516 48.2934 25.7552 48.0896 25.6816L43.0453 23.8595C42.5897 23.695 42.6109 23.0436 43.0762 22.909L48.2281 21.4181C48.4362 21.3579 48.5818 21.1705 48.5888 20.954L48.7629 15.5935Z" fill="#FD9E47"/>
<path d="M67.9739 10.0338C67.9896 9.54974 68.6156 9.36858 68.8875 9.76947L71.8974 14.2085C72.019 14.3878 72.2422 14.4684 72.4502 14.4082L77.6022 12.9173C78.0674 12.7827 78.4332 13.3221 78.1359 13.7045L74.8443 17.9389C74.7113 18.1099 74.7036 18.3471 74.8252 18.5263L77.8351 22.9654C78.107 23.3663 77.707 23.8808 77.2514 23.7163L72.2071 21.8942C72.0034 21.8206 71.7754 21.8866 71.6425 22.0576L68.3508 26.292C68.0536 26.6744 67.4406 26.453 67.4563 25.9689L67.6304 20.6084C67.6375 20.3919 67.5043 20.1955 67.3006 20.1219L62.2562 18.2999C61.8007 18.1353 61.8218 17.4839 62.2871 17.3493L67.439 15.8584C67.6471 15.7982 67.7927 15.6108 67.7998 15.3943L67.9739 10.0338Z" fill="#FD9E47"/>
<path d="M87.1868 4.47428C87.2025 3.99017 87.8285 3.80901 88.1003 4.2099L91.1103 8.64896C91.2319 8.82824 91.4551 8.90886 91.6631 8.84864L96.8151 7.35774C97.2803 7.22309 97.6461 7.76249 97.3488 8.1449L94.0571 12.3793C93.9242 12.5503 93.9165 12.7875 94.0381 12.9668L97.048 17.4058C97.3199 17.8067 96.9199 18.3212 96.4643 18.1567L91.42 16.3346C91.2163 16.261 90.9883 16.327 90.8554 16.498L87.5637 20.7324C87.2665 21.1148 86.6535 20.8934 86.6692 20.4093L86.8433 15.0488C86.8504 14.8323 86.7172 14.6359 86.5135 14.5623L81.4691 12.7403C81.0136 12.5757 81.0347 11.9244 81.5 11.7897L86.6519 10.2988C86.86 10.2386 87.0056 10.0513 87.0127 9.83476L87.1868 4.47428Z" fill="#FD9E47"/>
</svg>
