<svg width="103" height="48" viewBox="0 0 103 48" fill="none" xmlns="http://www.w3.org/2000/svg">
<path d="M10.3391 26.7127C10.3548 26.2286 10.9809 26.0474 11.2527 26.4483L14.2627 30.8874C14.3842 31.0666 14.6074 31.1473 14.8155 31.087L19.9674 29.5961C20.4327 29.4615 20.7984 30.0009 20.5011 30.3833L17.2095 34.6177C17.0765 34.7887 17.0688 35.0259 17.1904 35.2052L20.2004 39.6442C20.4722 40.0451 20.0722 40.5596 19.6167 40.3951L14.5723 38.573C14.3686 38.4994 14.1407 38.5654 14.0077 38.7364L10.7161 42.9708C10.4188 43.3532 9.80585 43.1318 9.82157 42.6477L9.99567 37.2872C10.0027 37.0707 9.86953 36.8743 9.6658 36.8007L4.62147 34.9787C4.16592 34.8141 4.18707 34.1628 4.65235 34.0281L9.80427 32.5372C10.0123 32.477 10.158 32.2897 10.165 32.0732L10.3391 26.7127Z" fill="#FD9E47"/>
<path d="M29.5501 21.153C29.5658 20.6689 30.1918 20.4877 30.4636 20.8886L33.4736 25.3277C33.5952 25.507 33.8183 25.5876 34.0264 25.5274L39.1783 24.0364C39.6436 23.9018 40.0094 24.4412 39.7121 24.8236L36.4204 29.058C36.2875 29.229 36.2798 29.4662 36.4013 29.6455L39.4113 34.0845C39.6831 34.4854 39.2832 35 38.8276 34.8354L33.7833 33.0133C33.5796 32.9398 33.3516 33.0057 33.2187 33.1767L29.927 37.4111C29.6297 37.7935 29.0168 37.5721 29.0325 37.088L29.2066 31.7275C29.2136 31.511 29.0805 31.3146 28.8767 31.2411L23.8324 29.419C23.3769 29.2544 23.398 28.6031 23.8633 28.4684L29.0152 26.9775C29.2233 26.9173 29.3689 26.73 29.376 26.5135L29.5501 21.153Z" fill="#FD9E47"/>
<path d="M48.7629 15.5934C48.7787 15.1093 49.4047 14.9281 49.6765 15.329L52.6865 19.7681C52.808 19.9474 53.0312 20.028 53.2393 19.9678L58.3912 18.4769C58.8565 18.3422 59.2222 18.8816 58.925 19.264L55.6333 23.4984C55.5004 23.6695 55.4927 23.9066 55.6142 24.0859L58.6242 28.525C58.896 28.9259 58.4961 29.4404 58.0405 29.2758L52.9962 27.4538C52.7924 27.3802 52.5645 27.4462 52.4316 27.6172L49.1399 31.8516C48.8426 32.234 48.2297 32.0126 48.2454 31.5285L48.4195 26.168C48.4265 25.9515 48.2934 25.7551 48.0896 25.6815L43.0453 23.8594C42.5897 23.6949 42.6109 23.0435 43.0762 22.9089L48.2281 21.418C48.4362 21.3578 48.5818 21.1704 48.5888 20.9539L48.7629 15.5934Z" fill="#FD9E47"/>
<path d="M67.9739 10.0337C67.9896 9.54962 68.6156 9.36846 68.8875 9.76935L71.8974 14.2084C72.019 14.3877 72.2422 14.4683 72.4502 14.4081L77.6022 12.9172C78.0674 12.7825 78.4332 13.3219 78.1359 13.7043L74.8443 17.9387C74.7113 18.1098 74.7036 18.3469 74.8252 18.5262L77.8351 22.9653C78.107 23.3662 77.707 23.8807 77.2514 23.7161L72.2071 21.8941C72.0034 21.8205 71.7754 21.8865 71.6425 22.0575L68.3508 26.2919C68.0536 26.6743 67.4406 26.4529 67.4563 25.9688L67.6304 20.6083C67.6375 20.3918 67.5043 20.1954 67.3006 20.1218L62.2562 18.2997C61.8007 18.1352 61.8218 17.4838 62.2871 17.3492L67.439 15.8583C67.6471 15.7981 67.7927 15.6107 67.7998 15.3942L67.9739 10.0337Z" fill="#FD9E47"/>
<path d="M87.1868 4.47415C87.2025 3.99005 87.8285 3.80889 88.1003 4.20978L91.1103 8.64883C91.2319 8.82812 91.4551 8.90873 91.6631 8.84852L96.8151 7.35762C97.2803 7.22297 97.6461 7.76237 97.3488 8.14478L94.0571 12.3792C93.9242 12.5502 93.9165 12.7874 94.0381 12.9666L97.048 17.4057C97.3199 17.8066 96.9199 18.3211 96.4643 18.1566L91.42 16.3345C91.2163 16.2609 90.9883 16.3269 90.8554 16.4979L87.5637 20.7323C87.2665 21.1147 86.6535 20.8933 86.6692 20.4092L86.8433 15.0487C86.8504 14.8322 86.7172 14.6358 86.5135 14.5622L81.4691 12.7402C81.0136 12.5756 81.0347 11.9243 81.5 11.7896L86.6519 10.2987C86.86 10.2385 87.0056 10.0511 87.0127 9.83464L87.1868 4.47415Z" fill="#FD9E47"/>
</svg>
