<svg width="36" height="43" viewBox="0 0 36 43" fill="none" xmlns="http://www.w3.org/2000/svg">
<g filter="url(#filter0_d_1_152)">
<path d="M28.2632 0.292969H6.82433C5.30687 0.292969 4.07251 1.38259 4.07251 2.72127V32.336C4.07251 33.6749 5.30714 34.7643 6.82433 34.7643H28.2632C29.7799 34.7643 31.0142 33.6752 31.0142 32.336V2.72196C31.0142 1.38279 29.7799 0.293175 28.2632 0.293175V0.292969ZM29.4738 32.3365C29.4738 32.8155 28.9198 33.2204 28.2635 33.2204H6.8246C6.1681 33.2204 5.61327 32.8152 5.61327 32.3365V2.72182C5.61327 2.24261 6.16808 1.838 6.8246 1.838H28.2635C28.9195 1.838 29.4738 2.24315 29.4738 2.72182L29.4735 32.3365H29.4738Z" fill="white"/>
<path d="M7.73553 14.9457H27.4486V3.80569L7.73553 3.80542V14.9457ZM9.27602 5.34982H25.9086V13.4009H9.27602V5.34982Z" fill="white"/>
<path d="M7.62769 30.8078H27.4435V16.5149H7.62769V30.8078ZM9.16789 26.5496H13.7102V29.2636H9.16789V26.5496ZM19.8199 22.279V25.0052H15.2506V22.279H19.8199ZM15.2506 20.7346V18.0592H19.8199V20.7346H15.2506ZM21.3607 22.279H25.903V25.0052H21.3607V22.279ZM19.8199 26.5496V29.2636H15.2506V26.5496H19.8199ZM13.7101 25.0052H9.16776V22.279H13.7101V25.0052ZM21.3604 29.2636V26.5496H25.9027V29.2636H21.3604ZM25.9027 20.7345H21.3604V18.0591H25.9027V20.7345ZM13.7099 18.0591V20.7345H9.16755V18.0591H13.7099Z" fill="white"/>
</g>
<defs>
<filter id="filter0_d_1_152" x="0.0725098" y="0.292969" width="34.9417" height="42.4714" filterUnits="userSpaceOnUse" color-interpolation-filters="sRGB">
<feFlood flood-opacity="0" result="BackgroundImageFix"/>
<feColorMatrix in="SourceAlpha" type="matrix" values="0 0 0 0 0 0 0 0 0 0 0 0 0 0 0 0 0 0 127 0" result="hardAlpha"/>
<feOffset dy="4"/>
<feGaussianBlur stdDeviation="2"/>
<feComposite in2="hardAlpha" operator="out"/>
<feColorMatrix type="matrix" values="0 0 0 0 0 0 0 0 0 0 0 0 0 0 0 0 0 0 0.25 0"/>
<feBlend mode="normal" in2="BackgroundImageFix" result="effect1_dropShadow_1_152"/>
<feBlend mode="normal" in="SourceGraphic" in2="effect1_dropShadow_1_152" result="shape"/>
</filter>
</defs>
</svg>
