<svg width="45" height="44" viewBox="0 0 45 44" fill="none" xmlns="http://www.w3.org/2000/svg">
<g filter="url(#filter0_d_1_130)">
<path fill-rule="evenodd" clip-rule="evenodd" d="M34.0418 25.211C33.9486 25.0866 33.8759 24.9815 33.7844 24.8624C33.4333 24.389 33.0482 23.9394 32.6214 23.5397C32.3015 23.2449 32.0049 22.9179 31.6933 22.6172C31.0909 22.0546 30.2387 20.8485 29.8289 20.1835C29.5835 19.7969 29.325 19.4181 29.1019 19.0204C28.8106 18.5041 28.4742 18.0006 28.1545 17.4949C27.9035 17.0974 27.2778 16.2456 26.9328 15.9482C26.7409 15.7912 26.5567 15.5666 26.2704 15.3691C26.2039 15.3203 26.1591 15.2855 26.0945 15.2392C25.8617 15.074 25.5904 14.9148 25.3258 14.801C24.4811 14.4392 23.7333 14.3223 22.7942 14.2768C21.4329 14.2197 20.4538 14.801 19.5665 15.5318C19.4157 15.6562 19.2649 15.8048 19.1294 15.9485C18.8048 16.2944 18.6871 16.4545 18.4158 16.7622C18.3623 16.8191 18.3623 16.8378 18.3173 16.8894C17.5897 17.7683 17.0146 18.7875 16.36 19.7177C15.9969 20.2315 15.6463 20.7509 15.2682 21.2541L14.7953 21.8469C14.5218 22.2257 14.1765 22.5467 13.859 22.8901C13.5755 23.1855 13.2644 23.434 12.977 23.7341L12.3607 24.4128C11.7497 25.148 11.2801 25.941 10.8558 26.8604C10.7676 27.066 10.1733 28.18 10.1733 28.9591C10.1733 30.1625 10.2284 30.7309 10.6644 31.8071C10.7829 32.1075 10.9618 32.4129 11.1282 32.6751C11.4454 33.1563 11.5091 33.1482 11.7088 33.4137C11.8799 33.6489 12.1459 33.8567 12.3785 34.0383C12.5577 34.1847 12.7594 34.3222 12.9611 34.4386C12.9917 34.4525 13.0254 34.4687 13.0568 34.4927C13.3815 34.669 13.7474 34.836 14.1219 34.8957L15.2799 35.0313H15.6457C16.8694 34.9769 18.7744 34.3794 19.857 34.0687C20.141 33.9792 20.4449 33.9117 20.7492 33.8327L22.718 33.5736C23.6845 33.5145 25.4844 33.9279 26.4637 34.2283C27.5761 34.5803 28.9118 34.9697 30.0615 35.0316H30.6625C31.7868 34.9697 32.8332 34.5421 33.6767 33.8015C34.7699 32.8545 35.4565 31.6941 35.6686 30.1714C35.9488 28.1106 35.1911 26.8312 34.0418 25.2111" fill="white"/>
<path d="M40.542 16.833C39.9466 19.8073 37.5541 21.788 35.2078 21.2544C32.8593 20.7289 31.442 17.8846 32.0435 14.9095C32.6459 11.9347 35.0325 8.40307 37.3788 8.9277C39.7289 9.4574 41.1434 13.8573 40.5419 16.8332" fill="white"/>
<path d="M31.5895 8.5112C30.988 11.4888 28.598 13.471 26.2487 12.9415C23.9066 12.4082 22.4873 9.57146 23.0897 6.59356C23.6893 3.62122 26.0773 0.0834761 28.4244 0.613748C30.7718 1.14094 32.1879 5.53865 31.5895 8.51142" fill="white"/>
<path d="M21.0882 7.20443C21.3189 10.2365 19.5633 12.854 17.1724 13.0571C14.778 13.2571 12.6546 10.9692 12.427 7.93193C12.198 4.89768 13.5327 0.792037 15.9251 0.586241C18.3207 0.385964 20.8619 4.16976 21.0882 7.20429" fill="white"/>
<path d="M13.6134 15.4887C13.8435 18.5186 12.087 21.1439 9.69654 21.3414C7.29765 21.5433 5.17811 19.2449 4.94805 16.2187C4.72019 13.1845 6.05761 9.07299 8.44816 8.87305C10.8417 8.67026 13.388 12.4563 13.6135 15.4886" fill="white"/>
</g>
<defs>
<filter id="filter0_d_1_130" x="0.922974" y="0.560547" width="43.7574" height="42.4709" filterUnits="userSpaceOnUse" color-interpolation-filters="sRGB">
<feFlood flood-opacity="0" result="BackgroundImageFix"/>
<feColorMatrix in="SourceAlpha" type="matrix" values="0 0 0 0 0 0 0 0 0 0 0 0 0 0 0 0 0 0 127 0" result="hardAlpha"/>
<feOffset dy="4"/>
<feGaussianBlur stdDeviation="2"/>
<feComposite in2="hardAlpha" operator="out"/>
<feColorMatrix type="matrix" values="0 0 0 0 0 0 0 0 0 0 0 0 0 0 0 0 0 0 0.25 0"/>
<feBlend mode="normal" in2="BackgroundImageFix" result="effect1_dropShadow_1_130"/>
<feBlend mode="normal" in="SourceGraphic" in2="effect1_dropShadow_1_130" result="shape"/>
</filter>
</defs>
</svg>
