<svg width="286" height="42" viewBox="0 0 286 42" fill="none" xmlns="http://www.w3.org/2000/svg">
<path d="M195.87 4.90124C194.061 5.72948 192.117 6.28911 190.073 6.54206C192.182 5.23878 193.759 3.18759 194.512 0.771204C192.531 1.98669 190.362 2.84225 188.101 3.30071C186.581 1.62377 184.567 0.512268 182.373 0.13877C180.178 -0.234729 177.925 0.150673 175.965 1.23514C174.004 2.31961 172.444 4.04246 171.528 6.13622C170.613 8.22999 170.392 10.5775 170.9 12.8143C166.886 12.6061 162.959 11.5284 159.374 9.65112C155.79 7.77381 152.627 5.13888 150.092 1.91732C149.225 3.46188 148.727 5.25268 148.727 7.15988C148.726 8.8768 149.135 10.5674 149.918 12.0817C150.702 13.5961 151.835 14.8873 153.217 15.8408C151.614 15.7881 150.046 15.3407 148.644 14.5357V14.67C148.644 17.0781 149.451 19.412 150.927 21.2759C152.403 23.1397 154.458 24.4186 156.743 24.8955C155.255 25.3112 153.696 25.3725 152.183 25.0746C152.828 27.1466 154.084 28.9584 155.775 30.2566C157.466 31.5547 159.507 32.274 161.614 32.3139C158.038 35.2137 153.622 36.7866 149.076 36.7797C148.27 36.7799 147.466 36.7313 146.666 36.6342C151.281 39.6991 156.652 41.3257 162.138 41.3194C180.71 41.3194 190.862 25.4305 190.862 11.6503C190.862 11.2026 190.851 10.7504 190.832 10.3027C192.807 8.82751 194.511 7.00071 195.866 4.90795L195.87 4.90124V4.90124Z" fill="#8F8F8F"/>
<path fill-rule="evenodd" clip-rule="evenodd" d="M0 20.7751C0 31.0464 7.22167 39.5874 16.6667 41.3194V26.3979H11.6667V20.6597H16.6667V16.0681C16.6667 10.9032 19.8883 8.0349 24.445 8.0349C25.8883 8.0349 27.445 8.26388 28.8883 8.49286V13.7731H26.3333C23.8883 13.7731 23.3333 15.0351 23.3333 16.6431V20.6597H28.6667L27.7783 26.3979H23.3333V41.3194C32.7783 39.5874 40 31.0481 40 20.7751C40 9.34851 31 0 20 0C9 0 0 9.34851 0 20.7751Z" fill="#8F8F8F"/>
<path d="M93.3291 13.7702C89.6566 13.7702 86.6596 16.8661 86.6596 20.6597C86.6596 24.4533 89.6566 27.5492 93.3291 27.5492C97.0016 27.5492 99.9986 24.4533 99.9986 20.6597C99.9986 16.8661 97.0016 13.7702 93.3291 13.7702ZM113.333 20.6597C113.333 17.8067 113.358 14.9796 113.203 12.1318C113.047 8.82402 112.317 5.88836 109.975 3.46954C107.629 1.04556 104.792 0.296137 101.59 0.135916C98.8278 -0.0243048 96.091 0.00153732 93.3341 0.00153732C90.5722 0.00153732 87.8354 -0.0243048 85.0785 0.135916C81.8764 0.296137 79.0344 1.05073 76.6929 3.46954C74.3463 5.89353 73.6208 8.82402 73.4657 12.1318C73.3106 14.9848 73.3356 17.8119 73.3356 20.6597C73.3356 23.5075 73.3106 26.3398 73.4657 29.1876C73.6208 32.4954 74.3513 35.431 76.6929 37.8499C79.0395 40.2738 81.8764 41.0233 85.0785 41.1835C87.8404 41.3437 90.5773 41.3179 93.3341 41.3179C96.096 41.3179 98.8328 41.3437 101.59 41.1835C104.792 41.0233 107.634 40.2687 109.975 37.8499C112.322 35.4259 113.047 32.4954 113.203 29.1876C113.363 26.3398 113.333 23.5127 113.333 20.6597V20.6597ZM93.3291 31.2601C87.6503 31.2601 83.0672 26.5259 83.0672 20.6597C83.0672 14.7935 87.6503 10.0593 93.3291 10.0593C99.008 10.0593 103.591 14.7935 103.591 20.6597C103.591 26.5259 99.008 31.2601 93.3291 31.2601ZM104.011 12.1008C102.685 12.1008 101.615 10.9948 101.615 9.62513C101.615 8.2555 102.685 7.14946 104.011 7.14946C105.337 7.14946 106.408 8.2555 106.408 9.62513C106.408 9.95035 106.347 10.2725 106.226 10.573C106.106 10.8736 105.93 11.1466 105.707 11.3766C105.484 11.6066 105.22 11.7889 104.929 11.9132C104.638 12.0375 104.326 12.1012 104.011 12.1008V12.1008Z" fill="#8F8F8F"/>
<path d="M284.689 6.45451C284.366 5.20465 283.734 4.06486 282.855 3.1492C281.976 2.23353 280.881 1.57412 279.68 1.23695C275.259 2.50989e-07 257.538 0 257.538 0C257.538 0 239.817 -2.50989e-07 235.397 1.23037C234.195 1.56645 233.1 2.22549 232.22 3.14133C231.341 4.05716 230.709 5.19753 230.388 6.44793C229.205 11.0536 229.205 20.6597 229.205 20.6597C229.205 20.6597 229.205 30.2658 230.388 34.8649C231.039 37.4046 232.962 39.4048 235.397 40.0825C239.817 41.3194 257.538 41.3194 257.538 41.3194C257.538 41.3194 275.259 41.3194 279.68 40.0825C282.121 39.4048 284.038 37.4046 284.689 34.8649C285.872 30.2658 285.872 20.6597 285.872 20.6597C285.872 20.6597 285.872 11.0536 284.689 6.45451ZM251.91 29.4763V11.8431L266.582 20.5939L251.91 29.4763Z" fill="#8F8F8F"/>
</svg>
