<svg width="39" height="43" viewBox="0 0 39 43" fill="none" xmlns="http://www.w3.org/2000/svg">
<g filter="url(#filter0_d_1_143)">
<path fill-rule="evenodd" clip-rule="evenodd" d="M14.0861 0.815186C12.7692 0.815186 11.6975 1.89799 11.6975 3.22276C11.6975 4.54301 12.7693 5.61752 14.0861 5.61752H14.823C15.0476 5.61752 15.2294 5.80007 15.2297 6.02528V11.4649C15.2297 12.844 14.88 13.7687 14.3147 14.5987C13.7596 15.4143 13.027 16.1484 12.1801 17.2995V30.4075C12.1801 31.9864 11.4146 33.4005 10.2486 34.2419H29.8035C31.4873 34.1322 32.6111 33.775 33.285 33.2865C33.9606 32.7969 34.2207 32.1872 34.238 31.3885C34.2726 29.7907 33.0856 27.4528 31.417 24.9682C29.7484 22.4835 27.6328 19.834 25.9276 17.4654C25.0751 16.281 24.3258 15.1721 23.7803 14.1661C23.2349 13.1601 22.8781 12.2672 22.8781 11.4653V6.02564L22.8784 6.02536C22.8784 5.80015 23.0605 5.6176 23.2851 5.6176H24.0219C25.3433 5.6176 26.4234 4.54302 26.4234 3.22284C26.4234 1.89807 25.3433 0.815265 24.0219 0.815265H14.0855L14.0861 0.815186ZM20.0837 16.6245C21.0364 16.6245 21.8119 17.4144 21.8119 18.3698C21.8119 19.325 21.0367 20.1024 20.0837 20.1024C19.131 20.1024 18.3428 19.3253 18.3428 18.3698C18.3428 17.4147 19.1307 16.6245 20.0837 16.6245ZM15.6109 20.7902C16.4535 20.7902 17.1485 21.4911 17.1485 22.3317C17.1485 23.1723 16.4536 23.8604 15.6109 23.8604C14.7708 23.8604 14.0861 23.1722 14.0861 22.3317C14.0861 21.4912 14.7708 20.7902 15.6109 20.7902ZM22.269 22.3826C23.6332 22.3826 24.7468 23.4946 24.7468 24.8667C24.7468 26.2352 23.6332 27.3507 22.269 27.3507C20.9048 27.3507 19.7912 26.2352 19.7912 24.8667C19.7912 23.4946 20.9048 22.3826 22.269 22.3826ZM27.8091 27.4653C28.7618 27.4653 29.55 28.2581 29.55 29.2107C29.55 30.1658 28.7621 30.9432 27.8091 30.9432C26.8564 30.9432 26.0809 30.1661 26.0809 29.2107C26.0809 28.2584 26.8561 27.4653 27.8091 27.4653ZM16.1569 28.1278C16.7973 28.1278 17.3261 28.6576 17.3261 29.3C17.3261 29.942 16.7977 30.4721 16.1569 30.4721C15.5165 30.4721 14.9878 29.9421 14.9878 29.3C14.9878 28.6579 15.5164 28.1278 16.1569 28.1278Z" fill="white"/>
<path fill-rule="evenodd" clip-rule="evenodd" d="M4.13171 10.5928H11.3644V30.4086C11.3644 32.5281 9.73047 34.2382 7.7479 34.2382C5.7699 34.2382 4.13135 32.5276 4.13135 30.4086V28.0281H8.24475C8.35367 28.0298 8.45861 27.9874 8.53604 27.9109C8.61347 27.8341 8.65715 27.7295 8.65715 27.6206C8.65715 27.5114 8.61347 27.4067 8.53604 27.3303C8.45861 27.2535 8.35367 27.2114 8.24475 27.2128H4.13164V23.1947H8.24475C8.35367 23.1964 8.45861 23.154 8.53604 23.0775C8.61347 23.0008 8.65715 22.8961 8.65715 22.7872C8.65715 22.678 8.61347 22.5734 8.53604 22.4969C8.45861 22.4201 8.35367 22.378 8.24475 22.3795H4.13164V18.3573H8.24475C8.35367 18.3587 8.45861 18.3167 8.53604 18.2399C8.61347 18.1634 8.65715 18.0588 8.65715 17.9496C8.65715 17.8404 8.61347 17.736 8.53604 17.6592C8.45861 17.5827 8.35367 17.5404 8.24475 17.5421H4.13164L4.13171 10.5928Z" fill="white"/>
</g>
<defs>
<filter id="filter0_d_1_143" x="0.131348" y="0.815186" width="38.1074" height="41.4268" filterUnits="userSpaceOnUse" color-interpolation-filters="sRGB">
<feFlood flood-opacity="0" result="BackgroundImageFix"/>
<feColorMatrix in="SourceAlpha" type="matrix" values="0 0 0 0 0 0 0 0 0 0 0 0 0 0 0 0 0 0 127 0" result="hardAlpha"/>
<feOffset dy="4"/>
<feGaussianBlur stdDeviation="2"/>
<feComposite in2="hardAlpha" operator="out"/>
<feColorMatrix type="matrix" values="0 0 0 0 0 0 0 0 0 0 0 0 0 0 0 0 0 0 0.25 0"/>
<feBlend mode="normal" in2="BackgroundImageFix" result="effect1_dropShadow_1_143"/>
<feBlend mode="normal" in="SourceGraphic" in2="effect1_dropShadow_1_143" result="shape"/>
</filter>
</defs>
</svg>
