<svg width="103" height="48" viewBox="0 0 103 48" fill="none" xmlns="http://www.w3.org/2000/svg">
<path d="M10.3391 26.7129C10.3548 26.2288 10.9809 26.0477 11.2527 26.4485L14.2627 30.8876C14.3842 31.0669 14.6074 31.1475 14.8155 31.0873L19.9674 29.5964C20.4327 29.4617 20.7984 30.0011 20.5011 30.3835L17.2095 34.6179C17.0765 34.789 17.0688 35.0261 17.1904 35.2054L20.2004 39.6445C20.4722 40.0454 20.0722 40.5599 19.6167 40.3953L14.5723 38.5733C14.3686 38.4997 14.1407 38.5657 14.0077 38.7367L10.7161 42.9711C10.4188 43.3535 9.80585 43.1321 9.82157 42.648L9.99567 37.2875C10.0027 37.071 9.86953 36.8746 9.6658 36.801L4.62147 34.9789C4.16592 34.8144 4.18707 34.163 4.65235 34.0284L9.80427 32.5375C10.0123 32.4773 10.158 32.2899 10.165 32.0734L10.3391 26.7129Z" fill="#FD9E47"/>
<path d="M29.5501 21.1533C29.5658 20.6692 30.1918 20.488 30.4636 20.8889L33.4736 25.328C33.5952 25.5073 33.8183 25.5879 34.0264 25.5277L39.1783 24.0368C39.6436 23.9021 40.0094 24.4415 39.7121 24.8239L36.4204 29.0583C36.2875 29.2293 36.2798 29.4665 36.4013 29.6458L39.4113 34.0848C39.6831 34.4857 39.2832 35.0003 38.8276 34.8357L33.7833 33.0137C33.5796 32.9401 33.3516 33.006 33.2187 33.177L29.927 37.4114C29.6297 37.7938 29.0168 37.5724 29.0325 37.0883L29.2066 31.7279C29.2136 31.5114 29.0805 31.3149 28.8767 31.2414L23.8324 29.4193C23.3769 29.2547 23.398 28.6034 23.8633 28.4687L29.0152 26.9778C29.2233 26.9176 29.3689 26.7303 29.376 26.5138L29.5501 21.1533Z" fill="#FD9E47"/>
<path d="M48.7629 15.5937C48.7787 15.1096 49.4047 14.9284 49.6765 15.3293L52.6865 19.7683C52.808 19.9476 53.0312 20.0282 53.2393 19.968L58.3912 18.4771C58.8565 18.3425 59.2222 18.8819 58.925 19.2643L55.6333 23.4987C55.5004 23.6697 55.4927 23.9069 55.6142 24.0862L58.6242 28.5252C58.896 28.9261 58.4961 29.4406 58.0405 29.2761L52.9962 27.454C52.7924 27.3804 52.5645 27.4464 52.4316 27.6174L49.1399 31.8518C48.8426 32.2342 48.2297 32.0128 48.2454 31.5287L48.4195 26.1682C48.4265 25.9517 48.2934 25.7553 48.0896 25.6817L43.0453 23.8597C42.5897 23.6951 42.6109 23.0438 43.0762 22.9091L48.2281 21.4182C48.4362 21.358 48.5818 21.1706 48.5888 20.9541L48.7629 15.5937Z" fill="#FD9E47"/>
<path d="M67.9739 10.034C67.9896 9.54992 68.6156 9.36876 68.8875 9.76965L71.8974 14.2087C72.019 14.388 72.2422 14.4686 72.4502 14.4084L77.6022 12.9175C78.0674 12.7828 78.4332 13.3222 78.1359 13.7047L74.8443 17.939C74.7113 18.1101 74.7036 18.3472 74.8252 18.5265L77.8351 22.9656C78.107 23.3665 77.707 23.881 77.2514 23.7164L72.2071 21.8944C72.0034 21.8208 71.7754 21.8868 71.6425 22.0578L68.3508 26.2922C68.0536 26.6746 67.4406 26.4532 67.4563 25.9691L67.6304 20.6086C67.6375 20.3921 67.5043 20.1957 67.3006 20.1221L62.2562 18.3C61.8007 18.1355 61.8218 17.4841 62.2871 17.3495L67.439 15.8586C67.6471 15.7984 67.7927 15.611 67.7998 15.3945L67.9739 10.034Z" fill="#FD9E47"/>
<path d="M87.1868 4.4744C87.2025 3.99029 87.8285 3.80913 88.1003 4.21002L91.1103 8.64908C91.2319 8.82836 91.4551 8.90898 91.6631 8.84876L96.8151 7.35786C97.2803 7.22322 97.6461 7.76261 97.3488 8.14502L94.0571 12.3794C93.9242 12.5504 93.9165 12.7876 94.0381 12.9669L97.048 17.4059C97.3199 17.8068 96.9199 18.3214 96.4643 18.1568L91.42 16.3348C91.2163 16.2612 90.9883 16.3271 90.8554 16.4982L87.5637 20.7325C87.2665 21.115 86.6535 20.8935 86.6692 20.4094L86.8433 15.049C86.8504 14.8325 86.7172 14.6361 86.5135 14.5625L81.4691 12.7404C81.0136 12.5759 81.0347 11.9245 81.5 11.7899L86.6519 10.2989C86.86 10.2387 87.0056 10.0514 87.0127 9.83488L87.1868 4.4744Z" fill="#FD9E47"/>
</svg>
