<svg width="36" height="28" viewBox="0 0 36 28" fill="none" xmlns="http://www.w3.org/2000/svg">
<path d="M11.8753 4.45411C11.6002 5.84485 11.403 7.16409 11.2089 8.46261C10.5195 13.0747 9.86918 17.4253 5.9079 23.7889L5.89226 23.814L5.8805 23.8411C5.50941 24.6969 5.48078 25.4693 5.73287 26.1017C5.98446 26.7329 6.49436 27.1703 7.09316 27.3939C8.28159 27.8377 9.86788 27.4629 10.7795 26.0878L10.7911 26.0702L10.8009 26.0515C11.8231 24.0881 12.6155 21.1282 13.2368 17.4137C13.8442 13.7817 14.2929 9.39565 14.6239 4.45142H22.4125L21.2602 21.0063L21.2596 21.0155L21.2593 21.0247C21.2048 23.3581 21.8291 25.0697 22.9045 26.1555C23.9827 27.2443 25.4605 27.6488 26.9922 27.4713C30.0404 27.1181 33.3587 24.4701 34.6403 20.1326L34.792 19.6193H34.2567H33.4589H33.2274L33.1121 19.82C31.9211 21.8924 30.7783 23.1028 29.7719 23.6883C28.7849 24.2624 27.9383 24.2349 27.2458 23.8451C26.5275 23.441 25.9086 22.6093 25.4982 21.451C25.0903 20.3 24.9036 18.866 25.0188 17.3236C25.0188 17.3233 25.0189 17.323 25.0189 17.3227L26.0348 4.50325L34.3541 4.39547L34.7489 4.39035V3.9955V0.931152V0.531152H34.3489H12.9608V0.530942L12.9479 0.531363C10.1327 0.622773 8.28734 0.771079 6.9625 1.23755C5.5897 1.7209 4.79237 2.5378 4.03626 3.85882L4.03626 3.85881L4.03512 3.86083L1.68875 8.01575L1.37749 8.56693L2.00891 8.61145L2.80674 8.66771L3.05259 8.68504L3.17862 8.47325C4.0185 7.06184 4.84337 6.04868 5.80458 5.38513C6.75535 4.7288 7.86949 4.3941 9.32849 4.39338L11.8753 4.45411Z" fill="white" stroke="white" stroke-width="0.8"/>
</svg>
