<svg width="38" height="33" viewBox="0 0 38 33" fill="none" xmlns="http://www.w3.org/2000/svg">
<g filter="url(#filter0_d_1_140)">
<path d="M13.7871 3.78059C12.5523 9.72095 12.9988 14.309 8.20538 22.033C6.96742 24.8966 10.565 25.9708 12.0379 23.742C13.8491 20.2525 14.9021 13.0894 15.5097 3.7676H23.3524L22.2734 19.3171C22.0804 27.5969 31.5025 26.0943 33.7725 18.388H33.0442C28.6347 26.0843 24.5419 21.7162 24.976 15.8916L25.9298 3.81941L33.8567 3.7164V0.910645H14.3334C9.17402 1.07869 7.82507 1.45774 6.50385 3.77319L4.36206 7.57749L5.09032 7.62899C6.64758 5.00402 8.23141 3.71446 11.0221 3.71446L13.7871 3.78059Z" fill="white"/>
</g>
<defs>
<filter id="filter0_d_1_140" x="0.362061" y="0.910645" width="37.4946" height="32.0254" filterUnits="userSpaceOnUse" color-interpolation-filters="sRGB">
<feFlood flood-opacity="0" result="BackgroundImageFix"/>
<feColorMatrix in="SourceAlpha" type="matrix" values="0 0 0 0 0 0 0 0 0 0 0 0 0 0 0 0 0 0 127 0" result="hardAlpha"/>
<feOffset dy="4"/>
<feGaussianBlur stdDeviation="2"/>
<feComposite in2="hardAlpha" operator="out"/>
<feColorMatrix type="matrix" values="0 0 0 0 0 0 0 0 0 0 0 0 0 0 0 0 0 0 0.25 0"/>
<feBlend mode="normal" in2="BackgroundImageFix" result="effect1_dropShadow_1_140"/>
<feBlend mode="normal" in="SourceGraphic" in2="effect1_dropShadow_1_140" result="shape"/>
</filter>
</defs>
</svg>
