<svg width="46" height="49" viewBox="0 0 46 49" fill="none" xmlns="http://www.w3.org/2000/svg">
<mask id="path-1-outside-1_1_114" maskUnits="userSpaceOnUse" x="-0.777344" y="-0.78418" width="47" height="50" fill="black">
<rect fill="white" x="-0.777344" y="-0.78418" width="47" height="50"/>
<path fill-rule="evenodd" clip-rule="evenodd" d="M31.5871 9.68122C37.891 8.40894 42.7647 9.17212 44.6189 12.2257C45.414 13.4979 45.573 15.1774 45.0959 17.0098C44.5129 19.249 42.8711 21.7424 40.4338 24.236C42.8181 26.7298 44.4603 29.2231 45.0959 31.4623C45.5725 33.2432 45.4135 34.8718 44.6193 36.1948C43.2947 38.2813 40.5933 39.299 36.9378 39.299C35.349 39.299 33.4947 39.0956 31.5875 38.6885C29.6273 44.5405 26.5018 48.1539 22.7933 48.1539C19.0853 48.1539 15.9598 44.4896 13.9996 38.6376C12.0923 39.0447 10.2915 39.2481 8.64926 39.2481C4.99378 39.2481 2.23934 38.2304 0.967707 36.1439C0.173092 34.8717 0.0140846 33.1923 0.490684 31.411C1.07371 29.1718 2.71552 26.6784 5.15279 24.1848C2.76852 21.691 1.12629 19.1977 0.490684 16.9585C0.0140846 15.1772 0.173092 13.4979 0.967707 12.2257C2.82152 9.17217 7.74864 8.35818 13.9996 9.68122C15.9598 3.82914 19.0853 0.21582 22.7933 0.21582C26.5014 0.21582 29.6268 3.87985 31.5871 9.68122ZM22.7929 3.32004C21.0451 3.32004 19.1378 5.40661 17.6546 8.91805C17.5227 9.20261 17.4116 9.52649 17.2955 9.86533C17.2247 10.0717 17.1521 10.2836 17.0716 10.4955C18.9258 11.0553 20.8331 11.717 22.7929 12.5821C24.7531 11.7169 26.66 11.0553 28.5142 10.4955C28.4218 10.1691 28.3111 9.86003 28.1928 9.55816C28.108 9.34238 28.0198 9.13026 27.9316 8.91805C26.4484 5.40661 24.5411 3.32004 22.7929 3.32004ZM30.3684 28.3067C30.4744 26.9838 30.5274 25.6097 30.5274 24.1848C30.5274 22.76 30.474 21.3859 30.3684 20.0628L29.8957 19.7732C28.8738 19.1462 27.8065 18.4915 26.6604 17.8748C25.3892 17.1623 24.065 16.5515 22.7933 15.9409C21.5221 16.5007 20.1979 17.1624 18.9262 17.8748C17.6016 18.5873 16.3834 19.2997 15.2182 20.0628C15.1122 21.3858 15.0592 22.7599 15.0592 24.1848C15.0592 25.5589 15.1122 26.9837 15.2182 28.3067L15.6948 28.5989C16.7154 29.2251 17.781 29.8789 18.9262 30.4948C20.1975 31.2072 21.5217 31.8181 22.7933 32.4286C24.0645 31.8688 25.3887 31.2072 26.6604 30.4948C27.9846 29.7823 29.2032 29.0699 30.3684 28.3067ZM35.8777 24.1848C35.1891 23.5742 34.4475 22.9633 33.6529 22.3528C33.6813 22.6817 33.6945 23.0108 33.7008 23.3398C33.7059 23.6215 33.7059 23.9031 33.7059 24.1848C33.7059 24.49 33.6928 24.7954 33.6796 25.1008C33.666 25.4062 33.6529 25.7115 33.6529 26.0168C34.4475 25.4062 35.1891 24.7953 35.8777 24.1848ZM29.8876 32.2468L29.8914 32.2252C29.3618 32.5813 28.7792 32.887 28.2488 33.1415C27.7196 33.4468 27.1366 33.752 26.6065 34.0066C27.5606 34.3626 28.4612 34.6679 29.3614 34.9224C29.5721 34.0641 29.7299 33.1554 29.8876 32.2468ZM16.224 34.9731C17.1242 34.7189 18.0782 34.4136 18.9784 34.0573C18.7138 33.9047 18.4361 33.7649 18.1583 33.6251C17.8802 33.4849 17.6016 33.3447 17.3362 33.1918C17.0707 33.0387 16.7917 32.8856 16.5127 32.7325C16.2354 32.5803 15.9581 32.4281 15.6939 32.2759C15.8529 33.1918 16.012 34.108 16.224 34.9731ZM9.70804 24.1848C10.3967 24.7953 11.1383 25.4062 11.9329 26.0168C11.8799 25.4062 11.8799 24.7953 11.8799 24.1848C11.8799 23.8795 11.893 23.5741 11.9062 23.2687C11.9197 22.9634 11.9329 22.6581 11.9329 22.3528C11.1383 22.9633 10.3967 23.5742 9.70804 24.1848ZM16.2244 13.4472C16.012 14.3123 15.8534 15.2285 15.6944 16.1443C16.224 15.7882 16.8066 15.4826 17.337 15.2281C17.8662 14.9228 18.4492 14.6175 18.9788 14.363C18.0252 14.007 17.1246 13.7017 16.2244 13.4472ZM26.6074 14.3122C27.1366 14.6175 27.7196 14.872 28.2492 15.1773C28.7792 15.4826 29.3622 15.7883 29.8918 16.0935C29.7333 15.1777 29.5738 14.2615 29.3622 13.3964C28.4616 13.6506 27.508 13.9558 26.6074 14.3122ZM8.54283 12.1238C6.10556 12.1238 4.35733 12.6836 3.72214 13.7524C3.35113 14.3633 3.29855 15.1773 3.61614 16.0928C4.04016 17.7214 5.36438 19.7567 7.48321 21.996C8.86042 20.7745 10.4501 19.5023 12.1979 18.332C12.4099 16.2965 12.7275 14.4138 13.1515 12.6325L11.4033 12.3272C10.3971 12.1746 9.39045 12.1238 8.54283 12.1238ZM3.72214 34.6169C4.57018 36.0926 7.48321 36.6016 11.4037 36.0419C11.9863 35.9399 12.5689 35.8381 13.0985 35.6855C12.6753 33.9553 12.3569 32.0213 12.1453 29.986C10.4501 28.8156 8.86085 27.5942 7.43063 26.3219C5.3118 28.5612 3.98716 30.6477 3.56356 32.2251C3.29855 33.1921 3.35113 34.0064 3.72214 34.6169ZM22.7933 45.0494C24.5415 45.0494 26.4484 42.9629 27.932 39.4514C28.1436 38.9935 28.3026 38.4337 28.5146 37.874C26.6604 37.3141 24.7531 36.6524 22.7933 35.7874C20.8335 36.6525 18.9262 37.3141 17.072 37.874C17.231 38.4337 17.443 38.9424 17.6546 39.4514C19.1378 42.9629 21.0451 45.0494 22.7933 45.0494ZM34.1829 36.0419C38.103 36.5509 41.0164 36.0419 41.8645 34.617C42.2351 34.0062 42.2877 33.1922 41.9701 32.2764C41.546 30.6477 40.2218 28.6124 38.103 26.3732C36.7258 27.5946 35.1365 28.8668 33.3883 30.0371C33.1763 32.0726 32.8587 33.9553 32.4347 35.7367L34.1829 36.0419ZM38.156 22.0475C40.2748 19.8083 41.5995 17.7217 42.0231 16.1443C42.2877 15.1773 42.2347 14.3634 41.9175 13.8036C41.0699 12.328 38.1564 11.819 34.2359 12.3787L32.4881 12.684C32.9113 14.4142 33.2297 16.3481 33.4413 18.3835C35.1361 19.5538 36.7258 20.7753 38.156 22.0475ZM17.9196 24.1846C17.9196 21.5893 20.0919 19.5028 22.7933 19.5028C25.4952 19.5028 27.667 21.5893 27.667 24.1846C27.667 26.7798 25.4952 28.8664 22.7933 28.8664C20.0919 28.8664 17.9196 26.7798 17.9196 24.1846ZM21.0981 24.1845C21.0981 25.1007 21.8401 25.8131 22.7933 25.8131C23.7465 25.8131 24.4885 25.1003 24.4885 24.1845C24.4885 23.2683 23.7465 22.5559 22.7933 22.5559C21.8397 22.5559 21.0981 23.2686 21.0981 24.1845Z"/>
</mask>
<path fill-rule="evenodd" clip-rule="evenodd" d="M31.5871 9.68122C37.891 8.40894 42.7647 9.17212 44.6189 12.2257C45.414 13.4979 45.573 15.1774 45.0959 17.0098C44.5129 19.249 42.8711 21.7424 40.4338 24.236C42.8181 26.7298 44.4603 29.2231 45.0959 31.4623C45.5725 33.2432 45.4135 34.8718 44.6193 36.1948C43.2947 38.2813 40.5933 39.299 36.9378 39.299C35.349 39.299 33.4947 39.0956 31.5875 38.6885C29.6273 44.5405 26.5018 48.1539 22.7933 48.1539C19.0853 48.1539 15.9598 44.4896 13.9996 38.6376C12.0923 39.0447 10.2915 39.2481 8.64926 39.2481C4.99378 39.2481 2.23934 38.2304 0.967707 36.1439C0.173092 34.8717 0.0140846 33.1923 0.490684 31.411C1.07371 29.1718 2.71552 26.6784 5.15279 24.1848C2.76852 21.691 1.12629 19.1977 0.490684 16.9585C0.0140846 15.1772 0.173092 13.4979 0.967707 12.2257C2.82152 9.17217 7.74864 8.35818 13.9996 9.68122C15.9598 3.82914 19.0853 0.21582 22.7933 0.21582C26.5014 0.21582 29.6268 3.87985 31.5871 9.68122ZM22.7929 3.32004C21.0451 3.32004 19.1378 5.40661 17.6546 8.91805C17.5227 9.20261 17.4116 9.52649 17.2955 9.86533C17.2247 10.0717 17.1521 10.2836 17.0716 10.4955C18.9258 11.0553 20.8331 11.717 22.7929 12.5821C24.7531 11.7169 26.66 11.0553 28.5142 10.4955C28.4218 10.1691 28.3111 9.86003 28.1928 9.55816C28.108 9.34238 28.0198 9.13026 27.9316 8.91805C26.4484 5.40661 24.5411 3.32004 22.7929 3.32004ZM30.3684 28.3067C30.4744 26.9838 30.5274 25.6097 30.5274 24.1848C30.5274 22.76 30.474 21.3859 30.3684 20.0628L29.8957 19.7732C28.8738 19.1462 27.8065 18.4915 26.6604 17.8748C25.3892 17.1623 24.065 16.5515 22.7933 15.9409C21.5221 16.5007 20.1979 17.1624 18.9262 17.8748C17.6016 18.5873 16.3834 19.2997 15.2182 20.0628C15.1122 21.3858 15.0592 22.7599 15.0592 24.1848C15.0592 25.5589 15.1122 26.9837 15.2182 28.3067L15.6948 28.5989C16.7154 29.2251 17.781 29.8789 18.9262 30.4948C20.1975 31.2072 21.5217 31.8181 22.7933 32.4286C24.0645 31.8688 25.3887 31.2072 26.6604 30.4948C27.9846 29.7823 29.2032 29.0699 30.3684 28.3067ZM35.8777 24.1848C35.1891 23.5742 34.4475 22.9633 33.6529 22.3528C33.6813 22.6817 33.6945 23.0108 33.7008 23.3398C33.7059 23.6215 33.7059 23.9031 33.7059 24.1848C33.7059 24.49 33.6928 24.7954 33.6796 25.1008C33.666 25.4062 33.6529 25.7115 33.6529 26.0168C34.4475 25.4062 35.1891 24.7953 35.8777 24.1848ZM29.8876 32.2468L29.8914 32.2252C29.3618 32.5813 28.7792 32.887 28.2488 33.1415C27.7196 33.4468 27.1366 33.752 26.6065 34.0066C27.5606 34.3626 28.4612 34.6679 29.3614 34.9224C29.5721 34.0641 29.7299 33.1554 29.8876 32.2468ZM16.224 34.9731C17.1242 34.7189 18.0782 34.4136 18.9784 34.0573C18.7138 33.9047 18.4361 33.7649 18.1583 33.6251C17.8802 33.4849 17.6016 33.3447 17.3362 33.1918C17.0707 33.0387 16.7917 32.8856 16.5127 32.7325C16.2354 32.5803 15.9581 32.4281 15.6939 32.2759C15.8529 33.1918 16.012 34.108 16.224 34.9731ZM9.70804 24.1848C10.3967 24.7953 11.1383 25.4062 11.9329 26.0168C11.8799 25.4062 11.8799 24.7953 11.8799 24.1848C11.8799 23.8795 11.893 23.5741 11.9062 23.2687C11.9197 22.9634 11.9329 22.6581 11.9329 22.3528C11.1383 22.9633 10.3967 23.5742 9.70804 24.1848ZM16.2244 13.4472C16.012 14.3123 15.8534 15.2285 15.6944 16.1443C16.224 15.7882 16.8066 15.4826 17.337 15.2281C17.8662 14.9228 18.4492 14.6175 18.9788 14.363C18.0252 14.007 17.1246 13.7017 16.2244 13.4472ZM26.6074 14.3122C27.1366 14.6175 27.7196 14.872 28.2492 15.1773C28.7792 15.4826 29.3622 15.7883 29.8918 16.0935C29.7333 15.1777 29.5738 14.2615 29.3622 13.3964C28.4616 13.6506 27.508 13.9558 26.6074 14.3122ZM8.54283 12.1238C6.10556 12.1238 4.35733 12.6836 3.72214 13.7524C3.35113 14.3633 3.29855 15.1773 3.61614 16.0928C4.04016 17.7214 5.36438 19.7567 7.48321 21.996C8.86042 20.7745 10.4501 19.5023 12.1979 18.332C12.4099 16.2965 12.7275 14.4138 13.1515 12.6325L11.4033 12.3272C10.3971 12.1746 9.39045 12.1238 8.54283 12.1238ZM3.72214 34.6169C4.57018 36.0926 7.48321 36.6016 11.4037 36.0419C11.9863 35.9399 12.5689 35.8381 13.0985 35.6855C12.6753 33.9553 12.3569 32.0213 12.1453 29.986C10.4501 28.8156 8.86085 27.5942 7.43063 26.3219C5.3118 28.5612 3.98716 30.6477 3.56356 32.2251C3.29855 33.1921 3.35113 34.0064 3.72214 34.6169ZM22.7933 45.0494C24.5415 45.0494 26.4484 42.9629 27.932 39.4514C28.1436 38.9935 28.3026 38.4337 28.5146 37.874C26.6604 37.3141 24.7531 36.6524 22.7933 35.7874C20.8335 36.6525 18.9262 37.3141 17.072 37.874C17.231 38.4337 17.443 38.9424 17.6546 39.4514C19.1378 42.9629 21.0451 45.0494 22.7933 45.0494ZM34.1829 36.0419C38.103 36.5509 41.0164 36.0419 41.8645 34.617C42.2351 34.0062 42.2877 33.1922 41.9701 32.2764C41.546 30.6477 40.2218 28.6124 38.103 26.3732C36.7258 27.5946 35.1365 28.8668 33.3883 30.0371C33.1763 32.0726 32.8587 33.9553 32.4347 35.7367L34.1829 36.0419ZM38.156 22.0475C40.2748 19.8083 41.5995 17.7217 42.0231 16.1443C42.2877 15.1773 42.2347 14.3634 41.9175 13.8036C41.0699 12.328 38.1564 11.819 34.2359 12.3787L32.4881 12.684C32.9113 14.4142 33.2297 16.3481 33.4413 18.3835C35.1361 19.5538 36.7258 20.7753 38.156 22.0475ZM17.9196 24.1846C17.9196 21.5893 20.0919 19.5028 22.7933 19.5028C25.4952 19.5028 27.667 21.5893 27.667 24.1846C27.667 26.7798 25.4952 28.8664 22.7933 28.8664C20.0919 28.8664 17.9196 26.7798 17.9196 24.1846ZM21.0981 24.1845C21.0981 25.1007 21.8401 25.8131 22.7933 25.8131C23.7465 25.8131 24.4885 25.1003 24.4885 24.1845C24.4885 23.2683 23.7465 22.5559 22.7933 22.5559C21.8397 22.5559 21.0981 23.2686 21.0981 24.1845Z" fill="white"/>
<path fill-rule="evenodd" clip-rule="evenodd" d="M31.5871 9.68122C37.891 8.40894 42.7647 9.17212 44.6189 12.2257C45.414 13.4979 45.573 15.1774 45.0959 17.0098C44.5129 19.249 42.8711 21.7424 40.4338 24.236C42.8181 26.7298 44.4603 29.2231 45.0959 31.4623C45.5725 33.2432 45.4135 34.8718 44.6193 36.1948C43.2947 38.2813 40.5933 39.299 36.9378 39.299C35.349 39.299 33.4947 39.0956 31.5875 38.6885C29.6273 44.5405 26.5018 48.1539 22.7933 48.1539C19.0853 48.1539 15.9598 44.4896 13.9996 38.6376C12.0923 39.0447 10.2915 39.2481 8.64926 39.2481C4.99378 39.2481 2.23934 38.2304 0.967707 36.1439C0.173092 34.8717 0.0140846 33.1923 0.490684 31.411C1.07371 29.1718 2.71552 26.6784 5.15279 24.1848C2.76852 21.691 1.12629 19.1977 0.490684 16.9585C0.0140846 15.1772 0.173092 13.4979 0.967707 12.2257C2.82152 9.17217 7.74864 8.35818 13.9996 9.68122C15.9598 3.82914 19.0853 0.21582 22.7933 0.21582C26.5014 0.21582 29.6268 3.87985 31.5871 9.68122ZM22.7929 3.32004C21.0451 3.32004 19.1378 5.40661 17.6546 8.91805C17.5227 9.20261 17.4116 9.52649 17.2955 9.86533C17.2247 10.0717 17.1521 10.2836 17.0716 10.4955C18.9258 11.0553 20.8331 11.717 22.7929 12.5821C24.7531 11.7169 26.66 11.0553 28.5142 10.4955C28.4218 10.1691 28.3111 9.86003 28.1928 9.55816C28.108 9.34238 28.0198 9.13026 27.9316 8.91805C26.4484 5.40661 24.5411 3.32004 22.7929 3.32004ZM30.3684 28.3067C30.4744 26.9838 30.5274 25.6097 30.5274 24.1848C30.5274 22.76 30.474 21.3859 30.3684 20.0628L29.8957 19.7732C28.8738 19.1462 27.8065 18.4915 26.6604 17.8748C25.3892 17.1623 24.065 16.5515 22.7933 15.9409C21.5221 16.5007 20.1979 17.1624 18.9262 17.8748C17.6016 18.5873 16.3834 19.2997 15.2182 20.0628C15.1122 21.3858 15.0592 22.7599 15.0592 24.1848C15.0592 25.5589 15.1122 26.9837 15.2182 28.3067L15.6948 28.5989C16.7154 29.2251 17.781 29.8789 18.9262 30.4948C20.1975 31.2072 21.5217 31.8181 22.7933 32.4286C24.0645 31.8688 25.3887 31.2072 26.6604 30.4948C27.9846 29.7823 29.2032 29.0699 30.3684 28.3067ZM35.8777 24.1848C35.1891 23.5742 34.4475 22.9633 33.6529 22.3528C33.6813 22.6817 33.6945 23.0108 33.7008 23.3398C33.7059 23.6215 33.7059 23.9031 33.7059 24.1848C33.7059 24.49 33.6928 24.7954 33.6796 25.1008C33.666 25.4062 33.6529 25.7115 33.6529 26.0168C34.4475 25.4062 35.1891 24.7953 35.8777 24.1848ZM29.8876 32.2468L29.8914 32.2252C29.3618 32.5813 28.7792 32.887 28.2488 33.1415C27.7196 33.4468 27.1366 33.752 26.6065 34.0066C27.5606 34.3626 28.4612 34.6679 29.3614 34.9224C29.5721 34.0641 29.7299 33.1554 29.8876 32.2468ZM16.224 34.9731C17.1242 34.7189 18.0782 34.4136 18.9784 34.0573C18.7138 33.9047 18.4361 33.7649 18.1583 33.6251C17.8802 33.4849 17.6016 33.3447 17.3362 33.1918C17.0707 33.0387 16.7917 32.8856 16.5127 32.7325C16.2354 32.5803 15.9581 32.4281 15.6939 32.2759C15.8529 33.1918 16.012 34.108 16.224 34.9731ZM9.70804 24.1848C10.3967 24.7953 11.1383 25.4062 11.9329 26.0168C11.8799 25.4062 11.8799 24.7953 11.8799 24.1848C11.8799 23.8795 11.893 23.5741 11.9062 23.2687C11.9197 22.9634 11.9329 22.6581 11.9329 22.3528C11.1383 22.9633 10.3967 23.5742 9.70804 24.1848ZM16.2244 13.4472C16.012 14.3123 15.8534 15.2285 15.6944 16.1443C16.224 15.7882 16.8066 15.4826 17.337 15.2281C17.8662 14.9228 18.4492 14.6175 18.9788 14.363C18.0252 14.007 17.1246 13.7017 16.2244 13.4472ZM26.6074 14.3122C27.1366 14.6175 27.7196 14.872 28.2492 15.1773C28.7792 15.4826 29.3622 15.7883 29.8918 16.0935C29.7333 15.1777 29.5738 14.2615 29.3622 13.3964C28.4616 13.6506 27.508 13.9558 26.6074 14.3122ZM8.54283 12.1238C6.10556 12.1238 4.35733 12.6836 3.72214 13.7524C3.35113 14.3633 3.29855 15.1773 3.61614 16.0928C4.04016 17.7214 5.36438 19.7567 7.48321 21.996C8.86042 20.7745 10.4501 19.5023 12.1979 18.332C12.4099 16.2965 12.7275 14.4138 13.1515 12.6325L11.4033 12.3272C10.3971 12.1746 9.39045 12.1238 8.54283 12.1238ZM3.72214 34.6169C4.57018 36.0926 7.48321 36.6016 11.4037 36.0419C11.9863 35.9399 12.5689 35.8381 13.0985 35.6855C12.6753 33.9553 12.3569 32.0213 12.1453 29.986C10.4501 28.8156 8.86085 27.5942 7.43063 26.3219C5.3118 28.5612 3.98716 30.6477 3.56356 32.2251C3.29855 33.1921 3.35113 34.0064 3.72214 34.6169ZM22.7933 45.0494C24.5415 45.0494 26.4484 42.9629 27.932 39.4514C28.1436 38.9935 28.3026 38.4337 28.5146 37.874C26.6604 37.3141 24.7531 36.6524 22.7933 35.7874C20.8335 36.6525 18.9262 37.3141 17.072 37.874C17.231 38.4337 17.443 38.9424 17.6546 39.4514C19.1378 42.9629 21.0451 45.0494 22.7933 45.0494ZM34.1829 36.0419C38.103 36.5509 41.0164 36.0419 41.8645 34.617C42.2351 34.0062 42.2877 33.1922 41.9701 32.2764C41.546 30.6477 40.2218 28.6124 38.103 26.3732C36.7258 27.5946 35.1365 28.8668 33.3883 30.0371C33.1763 32.0726 32.8587 33.9553 32.4347 35.7367L34.1829 36.0419ZM38.156 22.0475C40.2748 19.8083 41.5995 17.7217 42.0231 16.1443C42.2877 15.1773 42.2347 14.3634 41.9175 13.8036C41.0699 12.328 38.1564 11.819 34.2359 12.3787L32.4881 12.684C32.9113 14.4142 33.2297 16.3481 33.4413 18.3835C35.1361 19.5538 36.7258 20.7753 38.156 22.0475ZM17.9196 24.1846C17.9196 21.5893 20.0919 19.5028 22.7933 19.5028C25.4952 19.5028 27.667 21.5893 27.667 24.1846C27.667 26.7798 25.4952 28.8664 22.7933 28.8664C20.0919 28.8664 17.9196 26.7798 17.9196 24.1846ZM21.0981 24.1845C21.0981 25.1007 21.8401 25.8131 22.7933 25.8131C23.7465 25.8131 24.4885 25.1003 24.4885 24.1845C24.4885 23.2683 23.7465 22.5559 22.7933 22.5559C21.8397 22.5559 21.0981 23.2686 21.0981 24.1845Z" stroke="white" stroke-width="0.4" mask="url(#path-1-outside-1_1_114)"/>
</svg>
