<svg width="41" height="44" viewBox="0 0 41 44" fill="none" xmlns="http://www.w3.org/2000/svg">
<g filter="url(#filter0_d_1_147)">
<path fill-rule="evenodd" clip-rule="evenodd" d="M26.8891 7.53246C31.4082 6.61759 34.9021 7.16637 36.2314 9.36213C36.8013 10.277 36.9153 11.4847 36.5733 12.8023C36.1554 14.4124 34.9784 16.2054 33.2312 17.9985C34.9404 19.7917 36.1177 21.5846 36.5733 23.1948C36.915 24.4754 36.801 25.6465 36.2317 26.5978C35.2821 28.0983 33.3455 28.8301 30.7249 28.8301C29.5859 28.8301 28.2567 28.6838 26.8894 28.391C25.4841 32.5991 23.2436 35.1974 20.585 35.1974C17.9268 35.1974 15.6862 32.5625 14.281 28.3544C12.9137 28.6472 11.6227 28.7935 10.4455 28.7935C7.82492 28.7935 5.85032 28.0616 4.93871 26.5613C4.36907 25.6464 4.25508 24.4388 4.59675 23.158C5.01471 21.5478 6.19168 19.7548 7.93891 17.9617C6.22968 16.1685 5.0524 14.3756 4.59675 12.7654C4.25508 11.4845 4.36907 10.277 4.93871 9.36213C6.26768 7.16641 9.79982 6.58109 14.281 7.53246C15.6862 3.32434 17.9268 0.726074 20.585 0.726074C23.2433 0.726074 25.4838 3.36081 26.8891 7.53246ZM20.5847 2.95826C19.3318 2.95826 17.9645 4.45867 16.9012 6.98368C16.8067 7.1883 16.727 7.4212 16.6437 7.66485C16.593 7.81324 16.541 7.96562 16.4832 8.118C17.8125 8.52052 19.1798 8.99633 20.5847 9.61841C21.99 8.9963 23.357 8.52056 24.6862 8.118C24.62 7.88328 24.5406 7.66104 24.4558 7.44397C24.395 7.28881 24.3318 7.13628 24.2686 6.98368C23.2053 4.45867 21.838 2.95826 20.5847 2.95826ZM26.0155 20.9257C26.0915 19.9744 26.1295 18.9863 26.1295 17.9617C26.1295 16.9372 26.0912 15.9491 26.0155 14.9977L25.6766 14.7894C24.944 14.3386 24.1789 13.8678 23.3573 13.4243C22.4459 12.912 21.4966 12.4727 20.585 12.0337C19.6737 12.4362 18.7244 12.912 17.8128 13.4243C16.8632 13.9366 15.9899 14.4489 15.1546 14.9977C15.0786 15.949 15.0406 16.9371 15.0406 17.9617C15.0406 18.9498 15.0786 19.9743 15.1546 20.9257L15.4962 21.1358C16.2279 21.5861 16.9918 22.0562 17.8128 22.4991C18.7241 23.0114 19.6734 23.4506 20.585 23.8897C21.4963 23.4871 22.4456 23.0114 23.3573 22.4991C24.3066 21.9868 25.1802 21.4745 26.0155 20.9257ZM29.965 17.9617C29.4713 17.5226 28.9397 17.0834 28.37 16.6443C28.3904 16.8809 28.3998 17.1175 28.4044 17.3541C28.408 17.5566 28.408 17.7592 28.408 17.9617C28.408 18.1812 28.3986 18.4008 28.3892 18.6204C28.3795 18.84 28.37 19.0595 28.37 19.2791C28.9397 18.84 29.4713 18.4007 29.965 17.9617ZM25.6708 23.7589L25.6735 23.7434C25.2939 23.9995 24.8762 24.2193 24.4959 24.4023C24.1166 24.6218 23.6986 24.8413 23.3186 25.0244C24.0026 25.2803 24.6482 25.4999 25.2936 25.6829C25.4446 25.0657 25.5577 24.4123 25.6708 23.7589ZM15.8756 25.7194C16.5209 25.5366 17.2049 25.3171 17.8502 25.0608C17.6605 24.9511 17.4614 24.8506 17.2623 24.75C17.0629 24.6492 16.8632 24.5484 16.6729 24.4384C16.4826 24.3284 16.2826 24.2183 16.0826 24.1082C15.8838 23.9988 15.685 23.8893 15.4956 23.7799C15.6096 24.4384 15.7236 25.0973 15.8756 25.7194ZM11.2045 17.9617C11.6981 18.4007 12.2298 18.84 12.7994 19.2791C12.7614 18.84 12.7614 18.4007 12.7614 17.9617C12.7614 17.7422 12.7708 17.5226 12.7803 17.303C12.79 17.0834 12.7994 16.8639 12.7994 16.6443C12.2298 17.0834 11.6981 17.5227 11.2045 17.9617ZM15.8759 10.2405C15.7236 10.8626 15.6099 11.5214 15.4959 12.1799C15.8756 11.9239 16.2933 11.7041 16.6735 11.5211C17.0529 11.3016 17.4708 11.0821 17.8505 10.899C17.1669 10.643 16.5212 10.4235 15.8759 10.2405ZM23.3193 10.8625C23.6986 11.0821 24.1166 11.2651 24.4962 11.4846C24.8762 11.7041 25.2942 11.9239 25.6738 12.1434C25.5601 11.4849 25.4458 10.826 25.2942 10.204C24.6485 10.3868 23.9649 10.6063 23.3193 10.8625ZM10.3692 9.28887C8.62193 9.28887 7.36866 9.69138 6.91331 10.46C6.64734 10.8993 6.60964 11.4846 6.83732 12.1429C7.14129 13.314 8.09059 14.7776 9.60954 16.3877C10.5968 15.5095 11.7364 14.5946 12.9894 13.7531C13.1414 12.2894 13.3691 10.9355 13.673 9.65466L12.4198 9.43513C11.6984 9.32537 10.9768 9.28887 10.3692 9.28887ZM6.91331 25.4633C7.52125 26.5244 9.60954 26.8904 12.4201 26.4879C12.8377 26.4146 13.2554 26.3414 13.635 26.2316C13.3317 24.9875 13.1034 23.5968 12.9517 22.1332C11.7364 21.2916 10.5971 20.4133 9.57185 19.4985C8.0529 21.1087 7.10329 22.609 6.79963 23.7434C6.60964 24.4387 6.64734 25.0242 6.91331 25.4633ZM20.585 32.965C21.8383 32.965 23.2053 31.4647 24.2689 28.9396C24.4205 28.6104 24.5345 28.2078 24.6865 27.8053C23.3573 27.4028 21.99 26.927 20.585 26.3049C19.1801 26.927 17.8128 27.4028 16.4835 27.8053C16.5975 28.2078 16.7495 28.5736 16.9012 28.9396C17.9645 31.4647 19.3318 32.965 20.585 32.965ZM28.75 26.4879C31.5602 26.8539 33.6488 26.4879 34.2568 25.4633C34.5224 25.0241 34.5601 24.4387 34.3324 23.7802C34.0285 22.6091 33.0792 21.1455 31.5602 19.5353C30.5729 20.4136 29.4336 21.3284 28.1804 22.17C28.0284 23.6337 27.8007 24.9875 27.4967 26.2684L28.75 26.4879ZM31.5982 16.4248C33.1172 14.8147 34.0668 13.3143 34.3704 12.1799C34.5601 11.4846 34.5221 10.8993 34.2948 10.4968C33.6871 9.43568 31.5985 9.06967 28.788 9.47218L27.535 9.69171C27.8384 10.9358 28.0667 12.3265 28.2184 13.7901C29.4333 14.6317 30.5729 15.51 31.5982 16.4248ZM17.0912 17.9615C17.0912 16.0954 18.6484 14.595 20.585 14.595C22.5219 14.595 24.0789 16.0954 24.0789 17.9615C24.0789 19.8277 22.5219 21.3282 20.585 21.3282C18.6484 21.3282 17.0912 19.8277 17.0912 17.9615ZM19.3698 17.9615C19.3698 18.6203 19.9017 19.1326 20.585 19.1326C21.2684 19.1326 21.8003 18.62 21.8003 17.9615C21.8003 17.3027 21.2684 16.7904 20.585 16.7904C19.9014 16.7904 19.3698 17.3029 19.3698 17.9615Z" fill="white"/>
</g>
<defs>
<filter id="filter0_d_1_147" x="0.404602" y="0.726074" width="40.3611" height="42.4714" filterUnits="userSpaceOnUse" color-interpolation-filters="sRGB">
<feFlood flood-opacity="0" result="BackgroundImageFix"/>
<feColorMatrix in="SourceAlpha" type="matrix" values="0 0 0 0 0 0 0 0 0 0 0 0 0 0 0 0 0 0 127 0" result="hardAlpha"/>
<feOffset dy="4"/>
<feGaussianBlur stdDeviation="2"/>
<feComposite in2="hardAlpha" operator="out"/>
<feColorMatrix type="matrix" values="0 0 0 0 0 0 0 0 0 0 0 0 0 0 0 0 0 0 0.25 0"/>
<feBlend mode="normal" in2="BackgroundImageFix" result="effect1_dropShadow_1_147"/>
<feBlend mode="normal" in="SourceGraphic" in2="effect1_dropShadow_1_147" result="shape"/>
</filter>
</defs>
</svg>
