<svg width="65" height="106" viewBox="0 0 65 106" fill="none" xmlns="http://www.w3.org/2000/svg">
<path d="M64.6042 71.6422C64.4454 82.5854 64.2866 93.5285 63.3101 105.146C50.8672 105.468 39.2419 105.116 27.6166 104.763C28.4417 99.0097 26.228 96.4177 20.4432 94.0278C2.82288 86.7484 -4.33469 66.7358 3.29145 48.0581C14.9383 44.1582 18.4414 46.7006 18.8258 58.5466C18.9051 60.9917 19.3162 63.426 19.6461 67.1029C22.6003 75.5555 23.7934 76.2641 27.5536 72.9943C27.6794 55.8471 28.1406 38.694 27.8368 21.5544C27.5322 4.37171 44.516 -4.53646 57.4181 4.49036C62.9354 9.84171 64.6205 16.0088 64.3422 23.1654C63.9726 32.6727 64.2492 42.2049 63.7517 52.8402C59.5164 54.2309 55.7727 54.7865 52.0398 54.7215C46.0009 54.6163 42.2252 57.2397 41.7105 63.2444C41.2716 68.366 47.3219 72.884 53.3468 72.4685C57.1005 72.2096 60.8519 71.9187 64.6042 71.6422Z" fill="#1A4647"/>
</svg>
