<svg width="30" height="153" viewBox="0 0 30 153" fill="none" xmlns="http://www.w3.org/2000/svg">
<path d="M11.4336 33.3729C16.6932 22.9063 21.9527 12.4398 27.7648 0.873779C32.1787 26.8944 28.5384 51.294 23.4032 75.2187C17.9292 100.721 10.1448 125.728 3.29301 150.931C3.08082 151.711 2.02431 152.262 0.950928 152.795C1.1882 144.612 1.83601 136.553 2.50055 127.227C2.99678 121.542 3.47626 117.123 3.98072 112.085C3.60191 109.083 3.19806 106.701 3.16267 103.897C4.68748 95.6218 5.84382 87.7683 7.01814 79.2884C7.57125 71.1213 8.10642 63.5806 8.95166 55.5013C9.71345 49.6686 10.1651 44.3746 10.8351 38.7698C11.1456 37.7093 11.2379 36.9594 11.354 35.737C11.3965 34.634 11.4151 34.0034 11.4336 33.3729Z" fill="#B59C7B"/>
</svg>
