<svg width="23" height="38" viewBox="0 0 23 38" fill="none" xmlns="http://www.w3.org/2000/svg">
<path d="M0.58681 29.1206C1.18944 19.7479 1.79017 11.0087 2.39091 2.2695C2.83392 2.25568 3.27693 2.24188 3.71995 2.22807C3.71995 8.85291 3.71995 15.4777 3.71995 22.1026C4.50744 22.1111 5.29489 22.1195 6.08238 22.128C6.08238 15.1761 6.08238 8.22408 6.08238 0.889255C9.26074 1.71388 11.172 2.20976 13.9991 2.94327C14.1202 3.91285 14.4126 6.25274 14.7049 8.59261C15.1802 8.67597 15.6554 8.75934 16.1307 8.84271C16.7425 6.53184 17.3543 4.22099 18.4423 0.11145C18.73 6.68512 18.9365 11.4036 19.143 16.1221C19.8616 16.1223 20.5801 16.1225 21.2987 16.1227C21.595 11.4181 21.8913 6.71353 22.243 1.12808C22.243 13.0128 22.243 23.9213 22.243 34.8299C21.7187 34.849 21.1942 34.8681 20.6698 34.8872C20.3651 31.1992 20.0604 27.5111 19.7557 23.8231C19.1032 23.7883 18.4508 23.7534 17.7983 23.7185C17.5063 27.4253 17.2143 31.1319 16.9222 34.8386C16.4289 34.8467 15.9356 34.8548 15.4423 34.8629C15.4423 28.6641 15.4423 22.4652 15.4423 16.2664C14.6671 16.277 13.8919 16.2877 13.1167 16.2983C13.1167 22.8127 13.1167 29.3271 13.1167 35.2727C5.5135 38.7648 5.22247 33.6258 3.97047 27.565C2.62594 31.349 1.95936 33.225 0.584961 37.093C0.584961 33.2048 0.584962 31.4795 0.58681 29.1206ZM11.0887 26.1498C11.0887 20.857 11.0887 15.5641 11.0887 10.2713C10.2711 10.2649 9.45351 10.2586 8.63587 10.2523C8.63587 15.9879 8.63587 21.7236 8.63587 27.4592C9.37878 27.389 10.1217 27.3187 11.0887 26.1498Z" fill="#D4D3D0"/>
</svg>
