<svg width="164" height="24" viewBox="0 0 164 24" fill="none" xmlns="http://www.w3.org/2000/svg">
<path d="M8.06129 12.1195C5.6344 10.048 3.20752 7.97646 0.68457 5.44452C9.39435 3.39076 18.2002 1.79737 28.2104 0.201904C34.3733 0.68614 39.3319 1.17243 44.2904 1.65875C46.9169 2.1498 49.5432 2.64086 52.7553 3.09546C67.2254 4.57452 81.1098 6.09002 96.2514 7.66507C102.491 8.19039 107.474 8.65613 113.032 9.25959C116.676 9.81628 119.745 10.2352 122.813 10.6541C132.918 10.5033 143.052 9.86675 153.112 10.4622C156.691 10.674 160.093 13.8777 163.394 16.3001C162.682 17.8604 162.152 18.8362 161.622 19.8121C155.304 19.6539 148.986 19.4957 141.63 19.4559C133.756 16.7175 127.032 17.2184 120.175 19.769C116.903 20.9858 113.313 21.3444 109.867 22.0917C101.122 22.4998 92.377 22.9079 82.9431 23.4782C69.5228 23.5732 56.7916 23.506 43.1054 23.4184C42.1504 23.398 41.6649 23.5173 41.6649 23.5173C39.8858 23.3593 38.1068 23.2014 35.2545 22.6717C25.4747 18.9065 16.768 15.5131 8.06129 12.1195Z" fill="#BA885E"/>
</svg>
