<svg width="163" height="25" viewBox="0 0 163 25" fill="none" xmlns="http://www.w3.org/2000/svg">
<path d="M162.253 1.64025C158.004 8.44427 158.38 15.3092 161.398 22.8284C143.755 23.6428 126.696 23.8453 109.636 24.0479C106.394 23.9492 103.151 23.8505 98.5163 23.7093C74.4145 23.7468 51.7045 23.827 28.9946 23.9071C22.958 23.8124 16.9155 23.8517 10.8862 23.5885C3.63006 23.2717 0.378416 19.8039 0.263698 12.6761C0.142969 5.17497 3.50062 1.21688 11.0422 1.14045C31.6763 0.931175 52.3136 1.03591 74.337 1.02846C79.7879 0.997482 83.8515 0.95434 88.634 0.932007C97.8981 0.956283 106.443 0.959796 115.658 1.00331C118.106 1.20121 119.885 1.35916 121.758 1.62244C121.852 1.72778 122.263 1.7773 122.263 1.7773C122.263 1.7773 122.615 1.56081 123.337 1.49977C136.791 1.50588 149.522 1.57306 162.253 1.64025Z" fill="#D6DBE1"/>
</svg>
