<svg width="23" height="59" viewBox="0 0 23 59" fill="none" xmlns="http://www.w3.org/2000/svg">
<path d="M0.256775 58.4387C0.430123 48.7462 0.603473 39.0536 0.942773 28.2431C1.16123 26.4636 1.21375 25.8019 1.26626 25.1402C1.26626 25.1402 1.39582 24.7355 1.68525 24.2175C2.16921 23.1792 2.36376 22.6588 2.78585 21.6315C5.47983 14.4135 7.94628 7.70246 11.074 0.976807C15.2527 1.00871 18.7701 1.05537 22.332 1.09693C22.3765 1.09189 22.3305 1.01514 22.2804 1.5762C15.7306 20.6879 9.23102 39.2386 2.59817 57.9909C2.21418 58.4035 1.93108 58.5535 1.27588 58.5919C0.936092 58.5414 0.256775 58.4387 0.256775 58.4387Z" fill="#B4906A"/>
</svg>
