<svg width="503" height="440" viewBox="0 0 503 440" fill="none" xmlns="http://www.w3.org/2000/svg">
<path d="M452.503 0.192383C479.528 2.27444 494.879 16.1377 499.261 42.8789C504.617 75.5681 503.081 108.093 498.201 140.815C492.237 180.806 478.6 217.943 459.74 253.321C447.633 276.032 432.676 296.834 415.856 316.418C391.658 344.591 363.726 368.246 332.226 387.659C306.267 403.656 278.961 417.113 249.226 424.469C225.875 430.246 202.371 436.746 178.566 438.971C154.416 441.227 129.781 439.252 105.417 437.996C79.1815 436.643 53.9174 429.807 29.0967 421.458C23.2294 419.485 17.5281 417.017 11.5905 413.793C11.415 410.574 11.3993 408.338 10.9244 405.795C7.12028 404.806 3.77537 404.125 0.394165 402.73C0.293919 395.402 0.230017 388.788 0.478805 381.727C5.06534 374.827 9.15391 368.24 13.6624 361.954C18.7036 354.925 24.1256 348.17 29.6952 341.829C29.6705 352.041 29.6133 361.739 28.927 371.392C27.9537 385.083 26.517 398.741 25.2216 413.04C31.0085 412.753 37.6046 417.152 38.3989 407.5C40.1299 386.465 41.8036 365.425 44.1781 344.323C55.3796 344.236 65.9037 344.212 76.4558 344.841C75.8359 353.553 75.1881 361.612 74.3023 370.174C73.7056 372.888 73.3468 375.098 72.592 377.605C59.0242 385.504 66.5389 398.014 64.9465 408.376C66.1657 406.199 66.746 403.859 67.3319 401.52C67.9622 399.003 68.5977 396.488 69.231 393.972C69.8842 394.017 70.5375 394.063 71.1909 394.108C71.4084 396.682 71.7797 399.252 71.817 401.828C71.9809 413.142 74.4098 415.21 85.8936 413.731C90.81 413.098 92.5917 410.803 89.7127 405.795C85.9084 404.806 82.5634 404.125 79.1821 402.73C79.075 395.396 79.0042 388.774 79.1636 381.617C82.5717 373.064 85.7496 365.047 89.2582 357.516C95.3607 373.876 101.132 389.75 106.905 405.623C110.177 414.621 110.69 414.875 121.711 412.29C113.025 388.076 104.373 363.958 95.7886 339.218C96.7856 335.204 97.6537 331.793 98.6527 328.422C109.601 291.47 120.728 254.57 131.43 217.548C134.458 207.072 130.887 203.16 119.788 203.084C106.421 202.993 93.0539 202.968 79.6516 202.297C79.1333 197.538 80.8446 195.494 85.1417 195.697C87.6572 195.817 90.1836 195.701 92.7051 195.701C119.938 195.7 147.171 195.785 174.403 195.63C179.719 195.599 183.43 196.385 182.784 202.914C182.673 204.03 183.553 205.244 183.996 206.771C184.017 207.129 184.041 207.845 184.013 208.54C183.579 217.519 182.84 225.804 182.823 234.09C182.715 285.726 182.75 337.362 182.807 388.998C182.811 392.753 183.116 396.545 183.707 400.253C185.293 410.213 189.203 413.626 199.381 413.727C212.98 413.861 226.582 413.738 240.843 413.767C259.078 413.815 262.863 410.068 262.865 392.592C262.87 329.818 262.949 267.044 262.746 204.27C262.725 197.739 264.53 195.177 271.3 195.571C279.842 196.068 288.437 195.748 297.007 195.649C303.444 195.575 306.625 192.158 306.814 185.732C307.081 176.688 303.646 173.07 294.05 173.039C266.571 172.951 239.091 172.989 211.577 172.609C211.541 172.241 211.506 171.504 211.463 171.479C211.421 171.454 211.429 171.552 211.897 171.231C212.81 167.585 213.993 164.154 213.536 160.958C212.725 155.272 210.921 149.727 210.084 143.793C215.62 143.232 220.602 142.937 225.589 142.79C233.896 142.544 238 138.782 238.527 130.511C239.177 120.28 239.678 110.039 240.712 100.048C248.839 105.537 256.158 111.384 264.218 115.912C288.827 129.738 315.361 133.054 343.642 128.958C350.98 127.024 357.707 125.087 364.893 123.057C365.971 122.894 366.59 122.824 367.557 122.65C368.352 122.333 368.712 122.02 369.015 121.592C369.044 121.576 369.107 121.557 369.614 121.54C370.794 121.436 371.466 121.349 372.621 121.046C398.697 111.067 418.857 94.6719 433.582 71.5388C447.457 49.7406 452.655 25.6872 452.503 0.192383ZM356.866 155.069C356.135 152.933 355.654 150.669 354.628 148.686C351.615 142.866 346.538 140.43 340.209 141.3C333.663 142.2 329.201 145.798 327.614 152.571C326.099 159.035 328.021 165.443 333.539 167.444C342.057 170.533 342.381 176.091 341.962 183.132C341.834 185.278 342.753 187.486 343.422 190.718C346.189 196.615 351.596 196.823 356.96 196.831C387.216 196.877 417.473 196.915 447.729 196.821C458.933 196.786 462.269 193.406 462.515 182.461C462.611 178.177 462.614 173.887 462.515 169.603C462.279 159.421 458.966 156.132 448.675 156.121C418.167 156.087 387.659 156.136 356.866 155.069ZM408.295 235.776C408.295 241.799 408.295 247.823 408.295 255.412C415.801 250.896 421.487 247.476 428.464 243.281C421.94 239.292 416.531 235.908 410.99 232.756C410.588 232.527 409.231 233.977 408.295 235.776ZM318.22 253.153C320.297 254.676 323.062 257.891 324.314 257.383C327.265 256.185 330.927 253.533 331.529 250.847C331.954 248.949 328.132 244.347 325.689 243.92C320.445 243.006 317.377 246.35 318.22 253.153Z" fill="#FFC7C7"/>
</svg>
