<svg width="59" height="166" viewBox="0 0 59 166" fill="none" xmlns="http://www.w3.org/2000/svg">
<path d="M22.5676 1.58699C15.4332 20.3952 22.9316 31.418 42.9853 31.6014C58.3205 31.7416 60.548 33.8896 56.6017 50.0692C52.7989 65.6604 48.6701 81.4845 42.0485 96.0042C31.5154 119.101 18.802 141.204 6.96248 163.702C6.52095 164.541 5.57178 165.113 4.40712 165.422C6.56305 157.424 9.17101 149.812 12.0366 141.732C14.1205 136.749 15.9467 132.234 17.9714 127.155C25.2424 108.112 32.315 89.6341 39.7585 70.7696C41.9899 65.6567 43.8503 60.9302 46.3428 54.5979C27.9794 55.4128 11.7197 54.7679 1.17129 39.1916C0.877976 26.3777 0.584659 13.5638 1.10256 0.555176C8.79837 0.769308 15.683 1.17815 22.5676 1.58699Z" fill="#B69C7B"/>
</svg>
