<svg width="117" height="86" viewBox="0 0 117 86" fill="none" xmlns="http://www.w3.org/2000/svg">
<path d="M3.249 76.6628C11.0361 57.3174 18.9248 38.0119 26.5409 18.5995C28.5138 13.571 31.1403 10.2946 36.7967 8.95202C46.067 6.75171 55.1204 3.6376 65.2018 1.19337C73.3539 7.21208 80.5694 12.9463 88.6389 19.3592C90.5228 12.3865 92.0731 6.64855 93.6233 0.910645C101.23 4.20379 108.836 7.49694 116.32 11.6861C112.091 22.8035 109.818 33.3126 111.683 44.3532C114.155 58.9842 112.035 62.1007 97.2387 62.9616C88.0082 63.4987 78.7203 62.9926 69.4592 63.075C58.7205 63.1707 54.3733 67.3036 53.5715 78.0088C53.4208 80.0199 53.4144 82.0419 52.7558 84.0953C49.5438 83.6407 46.9174 83.1496 44.4531 82.2203C44.5972 80.0773 44.5791 78.3725 44.5478 76.0737C43.4637 71.6545 42.3927 67.8293 40.7857 62.089C37.0955 68.2236 34.5678 72.4256 31.6809 76.8458C30.3079 78.3538 29.2941 79.6436 27.6434 81.0686C18.2008 82.7972 9.39489 84.3906 0.607727 85.4393C1.50062 82.1507 2.37483 79.4067 3.249 76.6628Z" fill="white"/>
</svg>
