<svg width="56" height="65" viewBox="0 0 56 65" fill="none" xmlns="http://www.w3.org/2000/svg">
<path d="M45.3153 63.294C48.8485 51.0317 49.178 38.9224 44.1117 27.095C42.3503 22.9828 39.3064 19.4201 35.8259 15.762C32.83 31.3168 21.9381 37.2062 8.20052 40.909C5.00972 38.8723 2.75544 36.9728 0.416016 34.4057C1.84974 21.633 -0.259093 7.9337 14.4437 1.62195C27.1016 -2.59176 35.8205 4.47809 43.223 12.7971C53.7258 24.6004 58.2743 38.4529 53.9075 54.4153C53.2003 57.0006 53.5823 59.884 53.5857 63.3407C53.7106 64.0519 53.7762 64.1341 53.7762 64.1341C51.1727 63.9176 48.5692 63.701 45.3153 63.294Z" fill="#463332"/>
</svg>
