<svg width="71" height="206" viewBox="0 0 71 206" fill="none" xmlns="http://www.w3.org/2000/svg">
<path d="M0.915527 52.6779C0.951477 35.5169 0.987406 18.3558 1.72981 0.510484C25.164 -0.161041 47.8918 -0.148234 70.6138 0.571658C70.6113 59.6858 70.567 118.093 70.6625 176.5C70.6793 186.762 71.5775 197.085 64.5417 205.82C49.3519 205.871 34.1621 205.923 18.2505 205.32C18.0612 197.048 18.5937 189.43 19.1745 181.219C19.6667 177.918 20.1105 175.211 20.6068 171.869C23.0111 155.014 23.0111 155.014 7.03164 153.141C7.28894 141.528 7.44777 130.585 8.17725 119.738C29.062 116.571 42.3239 93.3868 33.9378 74.9072C32.7523 72.2949 27.9891 69.6012 25.2009 69.9021C22.4288 70.2011 18.7613 73.8104 17.8238 76.721C16.4913 80.8586 17.6641 85.7312 17.0943 90.2042C16.3681 95.9044 14.7171 101.287 7.24217 100.423C7.25153 90.2047 6.97495 80.6725 7.34456 71.1652C7.62278 64.0086 5.93777 57.8415 0.915527 52.6779Z" fill="#D7DBE1"/>
</svg>
