<svg width="138" height="196" viewBox="0 0 138 196" fill="none" xmlns="http://www.w3.org/2000/svg">
<path d="M79.9697 1.1478C81.1525 1.13828 82.3353 1.12875 84.1028 1.0169C98.0546 0.968116 111.422 0.993176 124.789 1.08408C135.888 1.15959 139.459 5.07213 136.431 15.5478C125.729 52.5704 114.601 89.4699 103.653 126.422C102.654 129.793 101.786 133.204 100.411 137.533C97.9521 143.99 95.9402 149.51 93.9282 155.029C90.7503 163.047 87.5724 171.064 83.8534 179.345C81.9267 178.866 80.5411 178.124 78.8676 176.862C78.3828 175.997 78.1858 175.652 77.9887 175.308C78.3475 173.098 78.7063 170.888 79.7136 168.299C81.025 167.262 82.0815 166.711 82.2937 165.93C89.1455 140.728 96.9299 115.721 102.404 90.2186C107.539 66.2939 111.179 41.8943 106.765 15.8737C100.953 27.4397 95.6938 37.9062 90.0216 48.639C85.2186 56.295 80.8283 63.6849 76.0658 71.3818C73.4766 75.5544 71.2596 79.42 68.6511 83.5703C62.6085 92.6743 56.9574 101.493 50.9174 110.646C45.1466 120.418 39.7646 129.857 34.3827 139.296C29.1263 146.17 23.7043 152.925 18.6631 159.954C14.1546 166.24 10.066 172.827 5.1478 179.452C3.4464 180.235 1.524 180.782 1.47221 181.47C1.12496 186.083 1.17568 190.725 1.09733 195.358C0.664836 188.213 0.232319 181.067 0.100769 172.893C1.17136 170.555 1.94096 169.244 2.97032 168.027C3.54327 167.522 3.85644 166.925 4.08266 166.343C3.99574 166.358 3.89669 166.212 4.37857 166.01C5.5731 165.112 6.52227 164.541 6.9638 163.702C18.8033 141.204 31.5167 119.101 42.0498 96.0041C48.6714 81.4844 52.8002 65.6603 56.603 50.0691C60.5493 33.8895 58.3219 31.7415 42.9866 31.6013C22.9329 31.4178 15.4345 20.3951 23.2624 1.48502C42.6272 1.30469 61.2985 1.22622 79.9697 1.1478Z" fill="#C7B193"/>
</svg>
