<svg width="28" height="38" viewBox="0 0 28 38" fill="none" xmlns="http://www.w3.org/2000/svg">
<path d="M8.59102 0.60498C9.18407 0.652468 9.3811 0.996762 9.79812 2.48838C10.3704 11.6604 10.7226 19.6851 11.5175 28.1354C16.6971 28.7418 21.4341 28.9224 26.1711 29.103C28.5907 33.8031 26.809 36.0982 21.8927 36.7314C10.4088 38.2106 7.9799 36.1427 7.81598 24.8283C7.77867 22.2526 7.40742 19.6818 7.18987 17.1087C6.53656 17.0632 5.88325 17.0176 5.22997 16.972C4.59673 19.488 3.96125 22.0035 3.3309 24.5203C2.74503 26.8592 2.16471 29.1996 0.945486 31.3761C2.53793 21.0142 -4.97682 8.50427 8.59102 0.60498Z" fill="#E3DFD3"/>
</svg>
