<svg width="145" height="76" viewBox="0 0 145 76" fill="none" xmlns="http://www.w3.org/2000/svg">
<path d="M121.452 0.827139C118.721 6.96716 115.991 13.1072 113.377 18.9864C116.507 18.9864 121.26 18.9765 126.013 18.9884C136.997 19.0161 140.959 21.1728 143.558 31.535C145.855 40.6899 145.156 50.2463 138.539 57.7807C136.587 60.003 132.369 60.9313 129.098 61.1659C119.869 61.8279 110.592 61.8218 100.808 62.4766C100.283 62.8742 100.235 62.9193 100.048 62.8586C99.8621 62.7979 99.4808 62.708 99.4808 62.708C99.0669 62.6234 98.6531 62.5388 97.0805 62.1054C72.0906 61.6094 48.2595 61.4359 24.428 61.3641C22.4861 61.3582 20.5421 62.0466 18.5991 62.4123C13.221 66.4482 7.84288 70.4841 1.25978 75.4241C0.983738 71.9467 0.651745 69.6318 0.641248 67.3154C0.591265 56.2786 0.519271 45.2399 0.677962 34.2051C0.766463 28.0492 1.5344 22.0234 9.51969 19.0503C14.9973 18.9785 19.2377 19.0569 23.475 18.9724C37.3909 18.6949 51.3056 18.3584 65.2209 18.0445C65.5142 17.9439 65.8074 17.8434 67.2291 17.6501C81.0765 17.5252 93.7955 17.4929 106.837 17.1284C107.408 15.6144 107.658 14.4325 108.068 12.7458C108.36 11.9128 108.49 11.5847 108.823 11.1187C109.252 10.7293 109.383 10.435 109.558 9.61416C109.851 8.83099 110.004 8.53181 110.354 8.08929C110.775 7.69331 110.906 7.39951 111.07 6.58334C111.344 5.80637 111.494 5.51063 111.846 5.07309C112.28 4.67881 112.418 4.38295 112.541 3.63617C112.695 2.96229 112.771 2.69598 113.153 2.24016C113.793 1.67236 113.962 1.23116 113.967 0.727044C113.967 0.727044 113.921 0.763804 114.226 0.756683C114.531 0.749551 115.176 0.615968 115.804 0.650103C118.105 0.731877 119.778 0.779513 121.452 0.827139ZM84.3753 29.5433C97.8318 29.5433 111.288 29.5433 124.745 29.5433C124.734 29.1855 124.723 28.8277 124.712 28.47C100.235 28.47 75.7584 28.47 51.2815 28.47C51.2796 28.8277 51.2778 29.1855 51.2759 29.5433C61.804 29.5433 72.3321 29.5433 84.3753 29.5433ZM122.276 40.142C123.236 40.0143 124.196 39.8866 125.155 39.7589C125.141 39.5615 125.126 39.364 125.111 39.1666C100.577 39.1666 76.0429 39.1666 51.5088 39.1666C51.5089 39.4937 51.5092 39.8208 51.5094 40.1479C74.7022 40.1479 97.8949 40.1479 122.276 40.142ZM79.8303 50.7554C94.8032 50.7554 109.776 50.7554 124.749 50.7554C124.739 50.3967 124.729 50.0379 124.719 49.6792C100.238 49.6792 75.7562 49.6792 51.2745 49.6792C51.272 50.0379 51.2696 50.3967 51.2671 50.7554C60.2833 50.7554 69.2996 50.7554 79.8303 50.7554Z" fill="#FEFFFF"/>
</svg>
