<svg width="71" height="52" viewBox="0 0 71 52" fill="none" xmlns="http://www.w3.org/2000/svg">
<path d="M0.586578 31.5623C0.477271 10.8346 1.36413 9.52453 21.4306 4.00546C26.7367 2.54611 32.2358 1.27392 37.6978 1.01867C45.5961 0.64956 51.1866 4.61857 54.2534 12.1177C54.8656 13.6149 56.4873 14.7636 57.7914 15.9038C74.071 30.1383 74.3343 33.0176 60.1262 50.2525C58.5003 50.4593 57.526 50.1337 56.3589 49.2918C52.8124 44.1731 49.3475 43.7855 45.7511 48.4609C45.7542 48.4211 45.818 48.4716 45.3118 48.4874C43.3327 49.6189 41.8598 50.7345 41.2844 51.1704C38.566 42.8074 35.8961 34.5936 33.8896 28.4206C21.7382 29.5669 11.1624 30.5646 0.586578 31.5623Z" fill="#453130"/>
</svg>
