<svg width="147" height="147" viewBox="0 0 147 147" fill="none" xmlns="http://www.w3.org/2000/svg">
<path d="M115.858 138.754C106.119 141.442 96.3807 144.13 86.3456 146.213C86.8619 145.31 87.6747 145.011 88.9701 144.776C90.6443 144.462 91.836 144.084 93.6126 143.635C101.269 142.583 105.328 139.261 104.131 131.364C111.293 127.686 110.077 120.864 109.325 115.753C108 106.745 103.804 98.1713 102.344 89.1671C100.507 77.8393 93.9675 73.0329 83.4435 71.3766C83.774 69.2884 84.0888 67.7735 84.7839 65.908C89.2813 62.995 93.3985 60.4328 98.0185 58.0495C100.929 58.2764 102.8 59.0337 103.76 55.0274C107.423 39.7272 98.7537 20.7979 85.2212 16.1787C70.9139 11.2949 52.6035 20.6381 46.5853 35.8933C41.6788 48.3305 47.2642 57.7223 61.1047 60.4503C61.4433 61.2227 61.7928 61.516 62.1943 62.1886C61.2345 65.4412 60.3461 68.1676 58.8221 70.8758C57.185 70.8881 56.1833 70.9504 55.182 70.9442C47.7682 70.898 43.4865 72.7484 43.7278 81.9945C44.066 94.9569 42.641 107.996 41.4518 120.954C40.892 127.054 42.5543 131.019 48.4634 133.06C54.1065 135.01 56.1732 139.031 54.7995 144.831C41.6447 140.427 29.6785 134.012 19.3262 123.893C-11.2434 90.4406 -5.83763 33.7594 37.6132 9.35264C44.8225 5.30306 53.3956 3.68123 61.9396 0.8301C79.3798 0.154055 95.7822 2.34814 110.864 10.1789C117.25 13.4948 122.85 18.3242 129.08 23.4492C130.267 26.4274 130.871 28.6496 132.143 30.3816C145.118 48.0513 149.605 68.0621 144.275 88.8598C141.135 101.115 133.469 112.211 127.317 123.712C124.026 121.866 121.256 120.137 118.065 118.144C117.26 125.666 116.559 132.21 115.858 138.754ZM22.4715 46.1296C21.3541 47.5524 20.2368 48.9751 19.1195 50.3979C19.5049 50.6507 19.8902 50.9036 20.2756 51.1565C22.3535 50.1711 24.4314 49.1856 27.5704 47.697C26.8788 51.4801 26.4036 54.0797 25.9283 56.6792C26.8186 56.8755 27.7089 57.0718 28.5992 57.2681C29.2697 53.9955 30.3796 50.7074 30.2654 47.4625C30.2405 46.7559 25.8353 46.2034 22.4715 46.1296Z" fill="#D5D5D5"/>
</svg>
