<svg width="122" height="114" viewBox="0 0 122 114" fill="none" xmlns="http://www.w3.org/2000/svg">
<path d="M101.929 0.248779C104.192 0.283875 106.457 0.264223 108.717 0.363821C117.347 0.744042 121.655 4.96455 121.578 13.6397C121.532 18.8807 120.699 24.1147 120.214 30.6556C120.22 34.9073 120.231 37.8553 120.243 40.8032C119.677 51.0395 119.176 61.2799 118.525 71.5107C117.999 79.782 113.895 83.5437 105.588 83.7895C100.601 83.937 95.6193 84.2325 89.7974 84.3394C86.6848 72.8598 84.4908 61.4848 82.0621 50.1602C81.6181 48.0899 80.2184 46.2245 78.9125 43.7871C71.6942 42.4038 64.8233 41.4978 57.9524 40.5919C57.9147 41.1095 57.8769 41.6272 57.8392 42.1448C64.9745 42.8572 72.1099 43.5695 79.2366 44.9795C81.2957 57.7144 83.2747 69.7677 85.4584 81.7838C87.3263 92.062 89.4289 102.298 91.4276 112.552C91.4276 112.552 91.4196 112.454 91.0125 112.528C89.8499 113.059 89.0944 113.516 87.6309 114C78.2622 113.477 69.6015 112.928 61.0209 111.745C60.3532 106.938 59.7036 102.745 58.8405 98.596C55.0498 80.3737 45.6584 63.1375 48.6234 43.2097C46.3998 45.719 44.1036 48.6883 44.41 51.3591C45.662 62.272 47.7092 73.0937 49.4635 83.949C35.7182 83.857 21.9729 83.765 7.13613 83.2749C4.20112 78.7845 0.700851 74.6528 0.796981 70.6065C1.24827 51.6181 2.28037 32.6147 4.068 13.7077C4.5038 9.09813 8.57878 4.83266 10.9806 0.408997C37.3011 0.368747 63.6216 0.328519 91.3127 0.296937C95.7651 0.286672 98.8469 0.267737 101.929 0.248779ZM112.593 30.1077C112.593 27.1371 112.593 24.1665 112.593 21.1959C112.251 21.2128 111.909 21.2297 111.566 21.2465C111.097 23.9292 110.627 26.612 110.158 29.2947C109.673 29.2351 109.189 29.1756 108.705 29.1161C108.338 26.3463 107.97 23.5765 107.789 22.2104C105.85 21.9062 104.568 21.9372 103.491 21.4821C101.848 20.7878 100.347 19.7575 98.7853 18.8698C97.8335 20.6896 96.2573 22.4442 96.0589 24.3428C95.6366 28.3844 95.9298 32.5009 95.9298 36.5867C95.0671 36.5971 94.2043 36.6075 93.3416 36.6178C93.3416 31.384 93.3416 26.1501 93.3416 20.9162C92.6579 20.9138 91.9743 20.9113 91.2906 20.9088C90.6997 31.8071 90.1088 42.7054 89.5179 53.6037C89.9792 53.6276 90.4404 53.6516 90.9017 53.6755C91.324 50.5037 91.7463 47.3318 92.1685 44.1599C92.7293 44.2076 93.29 44.2553 93.8508 44.303C94.1627 47.5329 94.4745 50.7628 94.8797 54.9592C95.8679 52.6143 96.411 51.3255 96.6751 50.6988C99.3719 52.5773 102.044 54.4389 106.001 57.1952C106.43 49.3217 106.73 43.8038 107.031 38.2858C107.714 38.2866 108.398 38.2874 109.082 38.2882C109.363 43.4875 109.644 48.6868 109.925 53.8862C110.232 53.8824 110.54 53.8786 110.848 53.8749C111.428 46.4143 112.008 38.9537 112.593 30.1077ZM12.5851 48.7541C12.5851 50.4794 12.5851 52.2048 12.5851 56.093C13.9595 52.2249 14.6261 50.3489 15.9706 46.5649C17.2226 52.6257 17.5136 57.7647 25.1168 54.2726C25.1168 48.3271 25.1168 41.8126 25.1168 35.2982C25.892 35.2876 26.6672 35.277 27.4424 35.2663C27.4424 41.4652 27.4424 47.664 27.4424 53.8628C27.9357 53.8547 28.429 53.8466 28.9223 53.8386C29.2144 50.1319 29.5064 46.4252 29.7984 42.7185C30.4509 42.7533 31.1033 42.7882 31.7558 42.823C32.0605 46.5111 32.3652 50.1991 32.6699 53.8872C33.1943 53.868 33.7188 53.8489 34.2432 53.8298C34.2432 42.9212 34.2432 32.0127 34.2432 20.128C33.8914 25.7135 33.5951 30.4181 33.2988 35.1226C32.5802 35.1224 31.8617 35.1223 31.1431 35.1221C30.9366 30.4036 30.7301 25.6851 30.4424 19.1114C29.3544 23.2209 28.7426 25.5318 28.1308 27.8426C27.6555 27.7593 27.1803 27.6759 26.705 27.5925C26.4127 25.2527 26.1204 22.9128 25.9992 21.9432C23.1721 21.2097 21.2609 20.7138 18.0825 19.8892C18.0825 27.224 18.0825 34.176 18.0825 41.128C17.295 41.1195 16.5076 41.111 15.7201 41.1025C15.7201 34.4777 15.7201 27.8528 15.7201 21.228C15.2771 21.2418 14.834 21.2556 14.391 21.2694C13.7903 30.0086 13.1896 38.7478 12.5851 48.7541ZM73.6929 85.6292C71.7613 87.6917 69.1788 89.4977 68.2156 91.9419C67.8259 92.9311 70.781 96.445 72.56 96.7427C74.3404 97.0406 78.3557 94.5151 78.2394 93.6516C77.883 91.0042 76.0141 88.5605 73.6929 85.6292Z" fill="#D8DCE2"/>
</svg>
