<svg width="101" height="38" viewBox="0 0 101 38" fill="none" xmlns="http://www.w3.org/2000/svg">
<path d="M0.918579 21.3152C1.55931 14.2101 2.26024 7.66576 3.06584 0.144409C6.25677 2.13691 9.02654 3.86644 12.8288 6.04496C15.8444 6.73581 17.8272 7.18578 19.8105 7.18786C43.7569 7.21283 67.7032 7.17161 91.6496 7.14766C93.8014 8.14087 96.6218 8.58203 97.9818 10.2291C102.364 15.5363 100.49 31.3951 94.2199 36.953C64.3182 37.3628 35.4966 37.34 6.67507 37.3173C5.18984 35.7291 3.70458 34.1409 2.17944 31.5158C1.856 28.3552 1.57246 26.2314 1.28893 24.1076C1.18556 23.3637 1.0822 22.6199 0.918579 21.3152ZM85.8167 31.4188C86.3342 31.1254 86.8517 30.8319 87.3692 30.5385C87.1705 30.3928 86.9719 30.1197 86.773 30.1195C69.987 30.0999 53.2008 30.1014 36.4147 30.1014C36.4151 30.5493 36.4155 30.9973 36.4159 31.4452C52.5111 31.4452 68.6063 31.4452 85.8167 31.4188ZM63.4957 16.3008C71.4052 16.3008 79.3148 16.3008 87.2243 16.3008C87.2062 15.9428 87.1881 15.5849 87.17 15.2269C70.2767 15.2269 53.3834 15.2269 36.4901 15.2269C36.4878 15.5849 36.4854 15.9428 36.4831 16.3008C44.9831 16.3008 53.4831 16.3008 63.4957 16.3008ZM81.027 22.3651C66.2511 22.3651 51.4752 22.3651 36.6993 22.3651C36.7088 22.7188 36.7184 23.0724 36.728 23.4261C53.6373 23.4261 70.5467 23.4261 87.456 23.4261C87.4552 23.0725 87.4544 22.719 87.4537 22.3654C85.7408 22.3654 84.028 22.3654 81.027 22.3651Z" fill="#FEFFFF"/>
</svg>
