<svg width="93" height="82" viewBox="0 0 93 82" fill="none" xmlns="http://www.w3.org/2000/svg">
<path d="M51.1541 8.01937C55.3035 5.76112 59.047 3.56167 63.0346 1.97525C71.8453 -1.52991 77.7038 2.89381 76.191 12.2933C74.9424 20.0514 72.6302 27.6386 70.3417 37.1648C73.4697 35.6457 75.7693 34.8748 77.6735 33.5401C83.7142 29.3063 88.2722 30.7779 90.5082 37.8954C93.1788 46.3962 92.7051 49.124 87.3804 52.9898C88.8375 54.3497 90.1956 55.6172 91.7371 57.3302C85.8894 65.657 79.8584 73.5383 73.3884 81.714C69.3288 80.3231 65.7082 78.6378 62.2499 76.5272C69.9014 64.9539 74.7256 53.0445 72.8749 39.0226C70.9535 40.2771 69.5493 41.8501 68.9816 43.682C65.6528 54.4235 62.5195 65.2254 58.7238 75.9617C55.3573 75.7177 52.5873 75.5189 49.766 74.7614C49.6814 72.8514 49.8657 71.4522 49.58 70.1565C47.6273 61.3008 47.0174 51.7109 37.2984 46.643C37.049 46.3654 36.8897 46.3056 36.7304 46.2458C36.8908 46.5103 37.0512 46.7748 37.2743 47.5216C38.5062 50.9492 40.0835 53.2756 37.6398 57.0152C34.031 62.5375 36.5767 65.7793 44.0175 66.0243C44.0175 69.1146 44.0175 72.229 43.4274 75.4321C36.0617 77.0172 29.2861 78.5137 22.5106 80.0102C16.2369 69.5097 9.85211 59.0727 3.7662 48.4646C2.21747 45.765 1.30927 42.5881 0.645297 39.5143C-0.792153 32.8597 3.89772 27.8816 10.4011 29.8786C17.3776 32.0209 23.9519 35.4711 30.2138 38.1423C33.5384 31.2351 37.0879 23.8606 41.061 15.606C44.2996 19.5395 46.3854 22.0729 48.6146 24.7805C53.8907 21.3895 51.3847 17.5313 50.5447 13.7451C50.1698 12.0552 50.7255 10.1589 51.1541 8.01937Z" fill="#6AAB86"/>
</svg>
