<svg width="61" height="47" viewBox="0 0 61 47" fill="none" xmlns="http://www.w3.org/2000/svg">
<path d="M16.9924 46.1183C3.26445 43.7223 -2.32097 34.3305 2.58553 21.8932C8.60369 6.63808 26.9141 -2.70509 41.2214 2.17865C54.7539 6.7979 63.4232 25.7272 59.7599 41.0274C58.8007 45.0336 56.9296 44.2763 54.0053 43.4556C56.4282 31.4916 54.6449 21.362 46.6298 11.0561C44.4169 20.5082 38.9775 25.0354 31.5237 28.1764C29.4986 29.0298 28.863 33.1801 27.1971 35.3923C24.9958 33.079 23.3811 30.0161 21.3165 29.6748C19.6723 29.4031 17.479 32.4536 15.2965 34.5039C15.7065 38.6918 16.3494 42.405 16.9924 46.1183Z" fill="#4B3735"/>
</svg>
