<svg width="84" height="77" viewBox="0 0 84 77" fill="none" xmlns="http://www.w3.org/2000/svg">
<path d="M0.339478 72.0589C0.412418 70.042 0.4188 68.02 0.569446 66.0089C1.37127 55.3036 5.71843 51.1708 16.4572 51.0751C25.7183 50.9927 35.0062 51.4988 44.2367 50.9617C59.0325 50.1008 61.1526 46.9843 58.6808 32.3532C56.8157 21.3127 59.0893 10.8036 63.5194 0.174438C70.4915 22.9307 77.1384 46.0946 83.2314 69.9338C76.4722 71.7395 70.2668 72.8699 63.6576 73.6923C61.5361 70.9542 59.8185 68.5241 58.0925 66.1451C58.0841 66.1961 58.1763 66.1491 58.0691 65.6235C56.3241 62.4069 54.6862 59.7159 52.1931 55.6195C48.554 59.1251 45.6902 61.8838 42.5922 65.0868C42.6722 69.1935 42.9863 72.8559 42.6466 76.5618C28.1083 75.0899 14.2239 73.5744 0.339478 72.0589Z" fill="black"/>
</svg>
