<svg width="651" height="537" viewBox="0 0 651 537" fill="none" xmlns="http://www.w3.org/2000/svg">
<path d="M571.118 424.319C570.522 425.699 570.248 427.376 569.284 428.414C543.227 456.477 513.872 480.242 479.886 498.286C445.971 516.294 410.052 528.145 372.181 533.453C344.469 537.337 316.61 537.508 288.577 534.268C251.522 529.986 216.474 519.642 183.029 503.602C157.894 491.547 134.824 476.21 113.8 457.846C108.691 453.384 103.393 449.137 97.5132 444.276C95.4866 442.493 94.1285 441.225 92.6714 439.866C97.9961 436 98.4698 433.272 95.7993 424.771C93.5632 417.654 89.0053 416.182 82.9646 420.416C81.0604 421.751 78.7608 422.521 75.6328 424.041C77.9213 414.514 80.2335 406.927 81.4821 399.169C82.9949 389.77 77.1364 385.346 68.3257 388.851C64.3381 390.437 60.5946 392.637 56.7404 394.558C32.4487 358.569 15.2505 319.586 6.88359 276.85C6.36867 274.22 1.85024 250.674 1.47625 247.57C3.4286 247.053 8.22499 268.125 9.68153 268.151C9.68153 268.151 9.69346 268.112 9.73337 268.621C13.5838 277.047 -1.05698 250.207 2.8468 244.831C6.52758 239.762 4.18085 226.936 9.68153 227.025C11.7808 227.06 31.7856 220.496 32.9949 218.807C33.6876 217.84 40.2243 261.066 39.8204 259.041C39.1408 255.633 17.6762 257.806 20.6616 253.049C24.86 246.359 39.1438 236.552 31.2491 235.696C26.4851 235.179 24.7409 232.44 22.5142 229.287C21.2214 227.457 19.5015 226.882 17.9695 226.935C16.0827 227.001 13.2031 227.009 12.4609 228.922C10.3763 234.295 7.00658 253.644 1.47625 247.57C1.36319 233.049 0.196761 206.299 1.33399 191.876C2.63189 175.417 4.87084 158.872 8.57044 142.793C16.1746 109.746 30.2249 79.5092 52.4735 53.5562C58.5194 46.5036 65.0903 39.7972 72.0796 33.6852C78.8898 27.7299 90.6614 19.7572 97.9451 14.3428C97.9821 15.089 93.9018 18.8168 93.9388 19.5629C92.4636 22.7008 94.5192 14.3428 99.7339 14.3428C105.741 9.549 104.016 16.9292 104.387 14.1845C97.2599 15.3233 94.5192 15.3233 102.803 12.1487C114.273 8.89328 125.565 4.6422 137.244 2.55686C184.764 -5.92807 226.496 10.0216 265.787 34.6976C294.15 52.5099 318.528 75.137 341.52 99.2878C351.881 110.171 361.395 121.899 372.163 132.348C394.165 153.696 420.901 164.15 451.557 165.529C483.76 166.977 514.215 158.714 544.772 150.405C564.481 145.045 583.922 138.135 604.707 137.976C628.766 137.792 641.846 147.425 647.818 170.51C649.788 178.127 650.84 186.193 650.867 194.058C650.934 213.181 651.101 232.387 649.5 251.414C646.887 282.459 638.902 312.505 625.394 340.512C615.25 361.545 602.452 381.303 590.722 401.563C589.643 403.427 571.311 427.382 569.284 428.414C568.784 413.418 579.343 413.045 562.545 406.451C561.704 401.138 536.737 421.883 535.921 416.723C525.907 414.797 541.669 373.04 540.717 382.029C539.799 390.696 552.103 390.926 552.75 399.687C552.826 400.707 556.155 402.278 557.902 402.188C560.164 402.07 562.494 400.771 564.528 399.542C566.086 398.601 567.231 396.979 568.559 395.66C570 397.475 579.279 403.058 579.773 405.102C579.998 406.035 576.611 411.691 574.976 412.85C573.949 413.579 569.565 425.169 568.345 425.626C563.121 425.626 547.996 426.995 542.773 426.995C542.751 427.624 549.007 407.781 548.985 408.41C553.505 409.153 558.025 409.896 562.545 410.639C562.441 411.376 562.337 412.113 562.233 412.85C558.954 413.223 555.614 413.319 552.412 414.036C548.194 414.98 546.513 420.012 549.103 423.4C549.206 423.535 550.439 422.807 551.819 422.014C558.701 422.472 564.909 423.396 571.118 424.319ZM157.232 92.7284C160.186 95.385 163.183 97.0941 166.562 93.3187C170.003 89.4731 173.476 89.7652 177.077 93.1844C179.618 95.5974 182.435 96.9222 185.292 93.6698C189.219 89.1997 192.975 89.9001 196.917 93.6478C197.787 94.4746 199.139 94.7953 200.805 95.612C200.805 85.6772 200.805 122.05 200.805 112.659C149.336 112.659 98.3547 111.289 47.0982 111.289C47.0982 120.796 47.0982 85.7746 47.0982 95.6954C50.6015 93.6393 47.9464 90.7364 50.8098 90.7444C53.7285 90.7526 62.0231 94.0365 65.1441 95.1093C66.5611 95.5964 69.1217 94.5483 70.3815 93.3649C73.9932 89.9726 77.3234 89.3867 80.9606 93.0726C84.1069 96.2611 87.2112 96.3548 90.2629 92.942C93.6665 89.1355 96.9878 90.0734 100.233 93.145C103.128 95.8849 106.033 96.5809 109.008 93.3052C112.485 89.4775 115.978 89.7364 119.516 93.2069C122.427 96.0628 125.334 96.3973 128.288 93.2379C131.467 89.8379 134.795 89.3244 138.239 92.8725C141.581 96.3159 144.783 96.2827 148.108 92.7485C150.597 90.1031 153.42 89.2823 157.232 92.7284ZM601.607 238.595C604.358 235.326 606.199 237.617 608.278 239.561C613.953 244.867 600.409 244.273 604.669 236.979C602.02 234.074 591.705 214.909 589.641 212.644C590.213 207.208 613.222 226.242 607.514 220.517C601.592 214.579 613.17 275.984 608.278 275.648C598.495 268.376 566.754 222.916 577.717 231.819C580.201 234.541 594.623 226.046 597.357 229.043C594.652 232.052 602.799 231.125 600.328 233.874C605.371 241.147 594.93 244.929 601.607 238.595ZM142.673 9.84468C148.747 9.22266 151.589 28.0173 151.744 24.7478C149.451 24.5879 147.672 24.4752 145.895 24.337C144.13 24.1996 142.367 24.0366 140.729 23.8956C138.109 11.0948 138.109 11.0948 130.72 13.1604C130.473 16.585 130.219 20.1174 129.947 23.8841C125.869 24.2065 122.323 24.4868 118.355 24.8004C118.355 27.13 117.809 30.5858 118.446 30.8192C122.077 32.1511 125.991 32.7154 129.988 33.5791C130.125 34.9896 130.242 36.3277 130.388 37.6627C130.773 41.1834 135.247 35.1834 135.247 46.0715C141.164 45.9837 42.4451 24.7478 115.266 24.7478C115.456 23.0362 118.394 17.3675 118.692 15.3233C121.294 15.3233 139.408 9.85978 142.673 9.84468ZM607.514 175.663C606.768 172.433 616.606 188.155 614.857 185.614C614.028 184.41 609.34 184.521 607.514 185.724C605.759 186.88 604.573 190.252 604.669 192.588C604.887 197.956 600.34 179.864 607.514 175.663Z" fill="url(#paint0_linear_1_84)"/>
<defs>
<linearGradient id="paint0_linear_1_84" x1="343.532" y1="705.783" x2="359.341" y2="-584.771" gradientUnits="userSpaceOnUse">
<stop offset="0.291935" stop-color="#FFC7C7"/>
</linearGradient>
</defs>
</svg>
