<svg width="28" height="30" viewBox="0 0 28 30" fill="none" xmlns="http://www.w3.org/2000/svg">
<path d="M16.4921 28.5059C11.972 29.0682 8.00125 29.9349 4.07821 29.7556C2.76263 29.6954 0.456426 26.8779 0.571468 25.4832C0.759844 23.1998 2.55927 21.0494 2.82191 20.532C8.7917 19.8389 13.4314 19.5479 17.8926 18.4984C18.5158 18.3519 19.1391 13.1281 18.2651 12.5607C14.1507 9.88941 9.51441 8.02214 4.07035 7.39447C3.57329 5.49963 3.07622 3.60479 2.15205 0.0819092C6.85628 0.294735 11.0225 -0.143771 14.8542 0.790136C22.2933 2.6033 28.1348 9.43903 27.7406 15.6342C27.3185 22.2684 23.9221 26.9091 16.4921 28.5059Z" fill="#FF5050"/>
</svg>
