<svg width="69" height="79" viewBox="0 0 69 79" fill="none" xmlns="http://www.w3.org/2000/svg">
<path d="M14.3016 74.975C15.1733 69.0306 13.1066 65.0101 7.46352 63.0603C1.55444 61.0185 -0.107841 57.0542 0.451949 50.9543C1.64113 37.9957 3.0661 24.9568 2.72789 11.9944C2.48666 2.74837 6.76826 0.897918 14.1821 0.944133C15.1834 0.950353 16.1851 0.888045 17.8108 1.44395C14.0779 18.3589 9.89236 34.7361 5.27768 50.9915C3.4832 57.3126 7.35759 59.1018 11.77 60.7521C17.2069 62.7855 17.7059 58.1157 18.4583 55.0242C20.3016 47.4492 21.9364 39.7873 23.0108 32.0706C24.3521 22.4376 25.0476 12.7146 26.4271 3.40857C30.6686 6.76816 34.505 9.74965 38.8358 13.1154C40.2122 8.83704 41.32 5.39339 42.4279 1.94973C52.9676 3.03281 59.5076 7.83925 61.344 19.167C62.8037 28.1713 66.9999 36.7447 68.3249 45.753C69.0766 50.8638 70.2927 57.6857 62.4832 61.2977C58.7288 61.5114 56.1414 61.7055 53.5091 61.1985C54.0555 52.0244 54.6468 43.5514 55.238 35.0783C54.6706 35.0264 54.1032 34.9745 53.5358 34.9226C51.5198 48.1859 49.5037 61.4491 47.4876 74.7124C46.6748 75.011 45.862 75.3096 44.8465 75.9897C37.3491 77.8548 30.1724 80.4847 22.9075 75.4772C21.0204 74.1765 17.5479 75.1762 14.3016 74.975Z" fill="black"/>
</svg>
