<svg width="50" height="57" viewBox="0 0 50 57" fill="none" xmlns="http://www.w3.org/2000/svg">
<path d="M4.39403 4.12336C15.1623 2.56454 25.7381 1.56686 37.8895 0.420532C39.8961 6.59353 42.566 14.8073 45.2844 23.1703C45.8598 22.7345 47.3327 21.6188 49.3139 21.0671C47.1703 29.7675 44.5183 37.904 41.376 46.1747C36.7048 49.3246 32.5241 52.3401 28.3432 55.3557C27.4737 55.5518 26.6042 55.7479 25.4858 56.3392C24.9999 56.6507 24.767 56.5514 24.525 56.4856C16.8705 54.4048 8.67403 53.4326 4.58939 44.9749C-0.471669 34.4954 -0.698054 23.665 1.73947 12.5929C2.33091 9.90626 3.36887 7.31798 4.39403 4.12336ZM23.0126 34.0018C18.9399 34.0018 14.8672 34.0018 10.7945 34.0018C10.586 34.9995 10.3776 35.9972 10.1691 36.9949C12.93 37.8676 15.8638 39.7422 18.399 39.3051C20.5369 38.9365 22.212 35.8838 23.0126 34.0018Z" fill="#B7855B"/>
</svg>
