<svg width="45" height="63" viewBox="0 0 45 63" fill="none" xmlns="http://www.w3.org/2000/svg">
<path d="M36.211 50.0299C37.943 51.7539 39.817 53.3591 41.3796 55.225C45.5767 60.2366 45.0119 61.5393 37.9215 62.8783C24.9717 62.0403 13.8827 57.638 4.64772 49.0028C3.71941 48.1348 3.38106 46.6358 2.89807 44.4416C2.33162 42.1458 1.63598 40.8382 0.940369 39.5306C1.06679 38.4326 1.19318 37.3345 1.87733 35.8834C3.47673 35.1667 5.1637 35.0801 5.45752 34.3955C7.71804 29.1292 9.87325 23.801 11.6562 18.3593C12.0584 17.1318 10.871 15.3835 10.4153 13.8749C10.4153 13.8749 10.5479 13.3905 11.265 13.327C15.7513 13.1312 18.0454 11.9292 16.0679 7.62941C19.361 5.16732 22.6542 2.70522 26.5092 0.883667C26.6677 5.18019 25.7418 8.87111 25.9832 12.484C26.3475 17.9349 27.5267 23.3314 27.8408 28.9C21.5089 31.4467 18.15 35.6996 19.8107 41.9817C21.545 48.5427 26.7205 50.7361 33.2569 50.0114C34.229 49.9036 35.2257 50.0182 36.211 50.0299Z" fill="#453231"/>
</svg>
