<svg width="23" height="23" viewBox="0 0 23 23" fill="none" xmlns="http://www.w3.org/2000/svg">
<path d="M8.83951 0.900198C10.9938 0.866004 12.6295 0.980769 14.8826 1.08444C17.7544 2.9729 20.0087 4.87243 22.6539 7.09672C22.9289 12.6848 23.7343 18.26 17.7121 21.8623C16.2244 22.0184 15.2277 21.9038 14.2556 22.0116C7.71919 22.7364 2.54371 20.5429 0.809345 13.9819C-0.851342 7.69979 2.50758 3.44693 8.83951 0.900198ZM16.6476 9.46972C13.7375 8.34293 10.8806 6.87087 7.86843 6.40716C7.32533 6.32354 5.13505 10.6012 5.53284 12.478C5.95364 14.4634 8.55743 15.9861 11.3496 18.9043C10.3425 14.034 9.85965 11.6988 9.37681 9.36371C11.6885 10.5638 14.0002 11.7639 16.5042 13.0637C16.6 12.4017 16.7373 11.453 16.6476 9.46972Z" fill="#E3DFD3"/>
</svg>
