<svg width="18" height="220" viewBox="0 0 18 220" fill="none" xmlns="http://www.w3.org/2000/svg">
<path d="M0.767395 219.221C7.57704 210.085 6.67886 199.762 6.66207 189.5C6.56656 131.093 6.61081 72.6858 6.6048 12.8971C6.57547 7.94543 6.54888 4.37538 7.21594 0.778564C11.1523 0.85042 14.395 0.949093 17.5768 1.60471C17.2881 3.64587 17.0601 5.13005 16.5618 7.18198C16.5846 20.5637 16.878 33.3776 16.8244 46.6942C16.2383 52.4108 15.9992 57.6247 15.7529 63.5093C16.2123 68.7821 16.6788 73.384 17.1475 78.6888C17.1573 86.0087 17.1649 92.6258 17.2186 99.7604C17.3024 100.622 17.3401 100.967 17.3871 101.523C17.3964 101.735 17.2669 102.14 17.0136 102.38C16.787 103.441 16.8137 104.261 16.8089 105.721C16.6041 116.054 16.4307 125.746 16.1203 136.016C15.9601 137.769 15.9369 138.946 15.8359 140.761C15.7965 143.973 15.8351 146.546 15.848 149.829C15.7983 160.199 15.7742 169.858 15.7742 180.22C16.231 188.067 16.6635 195.213 17.1216 202.948C17.0828 205.112 17.0184 206.685 16.6106 208.658C15.5277 211.406 14.7883 213.756 14.0489 216.106C9.69716 217.278 5.34538 218.45 0.767395 219.221Z" fill="#B6BFCE"/>
</svg>
