<svg width="51" height="86" viewBox="0 0 51 86" fill="none" xmlns="http://www.w3.org/2000/svg">
<path d="M28.6677 66.363C27.0724 72.6486 25.5221 78.3865 23.6382 85.3593C15.5687 78.9464 8.35317 73.2121 0.775146 67.1014C2.20332 62.8353 3.99399 58.9457 6.56625 54.3863C14.0098 52.5394 14.5747 51.2367 10.3776 46.2251C8.81495 44.3592 6.94097 42.754 5.71139 40.8622C11.7335 37.2598 10.9282 31.6847 11.5897 26.2338C24.9363 22.2062 35.8282 16.3168 38.8241 0.761963C42.3046 4.42014 45.3486 7.98284 47.1099 12.095C52.1762 23.9224 51.8467 36.0317 47.663 48.1035C42.9068 50.9957 38.4556 54.7833 33.3112 56.536C27.824 58.4055 28.0428 61.6479 28.6677 66.363Z" fill="#B9875E"/>
</svg>
