<svg width="261" height="245" viewBox="0 0 261 245" fill="none" xmlns="http://www.w3.org/2000/svg">
<path d="M134.942 2.37921C143.602 2.92825 152.263 3.47729 162.176 4.01671C164.156 3.99702 164.884 3.98689 165.612 3.97681C193.091 3.98869 220.57 3.95133 248.049 4.03928C257.646 4.06998 261.08 7.68807 260.814 16.7325C260.625 23.1584 257.443 26.5747 251.007 26.6491C242.437 26.748 233.842 27.0677 225.3 26.5708C218.53 26.177 216.724 28.7396 216.745 35.2705C216.948 98.0438 216.87 160.818 216.864 223.592C216.863 241.068 213.078 244.816 194.843 244.767C204.661 240.513 206.303 238.132 206.304 226.766C206.309 164.611 206.296 102.455 206.29 38.9131C206.245 26.6991 206.245 26.6902 195.659 26.6847C180.047 26.6766 164.435 26.6773 148.823 26.6845C138.274 26.6893 138.274 26.6971 137.975 37.4133C137.553 36.2446 136.673 35.0306 136.783 33.9146C137.43 27.3847 133.718 26.5994 128.403 26.6297C101.171 26.7849 73.9376 26.7002 46.7047 26.7012C44.1833 26.7013 41.6569 26.8167 39.1413 26.6976C34.8442 26.494 33.1329 28.5379 33.0666 33.3993C31.3343 34.1289 30.1514 34.1384 28.9814 33.5057C29.7336 27.8783 27.4252 26.4049 22.6514 26.5848C16.1914 26.8283 9.7071 26.4268 3.10869 25.7594C-0.618728 18.3092 -0.994302 11.4444 3.94404 4.47818C13.3779 3.90787 22.1227 3.49976 31.4306 3.29187C40.5243 3.67829 49.0582 4.04848 57.5829 3.89941C59.3411 3.8687 61.0655 1.90282 63.2374 0.583163C69.9873 0.495633 76.3054 0.653815 83.0009 1.2299C88.4988 2.42282 93.6193 3.19778 99.448 3.96835C111.751 3.43572 123.346 2.90745 134.942 2.37921Z" fill="#B6C1CE"/>
</svg>
