<svg width="24" height="40" viewBox="0 0 24 40" fill="none" xmlns="http://www.w3.org/2000/svg">
<path d="M23.591 12.8005C23.0083 20.9538 22.4282 28.4144 21.8481 35.875C21.5405 35.8787 21.2328 35.8825 20.9252 35.8863C20.6442 30.6869 20.3632 25.4876 20.0822 20.2883C19.3986 20.2875 18.7149 20.2867 18.0312 20.2859C17.7307 25.8039 17.4302 31.3218 17.0014 39.1953C13.0447 36.439 10.3723 34.5774 7.67556 32.6989C7.41144 33.3256 6.86832 34.6144 5.88015 36.9593C5.47497 32.7629 5.16308 29.533 4.85125 26.3031C4.29047 26.2554 3.72973 26.2077 3.16895 26.1601C2.74669 29.3319 2.3244 32.5038 1.90214 35.6756C1.44087 35.6517 0.979588 35.6277 0.518311 35.6038C1.10924 24.7055 1.70013 13.8072 2.29101 2.90889C2.9747 2.91138 3.65834 2.91386 4.34202 2.91633C4.34202 8.15021 4.34202 13.3841 4.34202 18.6179C5.20475 18.6076 6.06751 18.5972 6.93024 18.5868C6.93024 14.501 6.63699 10.3846 7.05933 6.3429C7.2577 4.44434 8.83393 2.68971 9.78576 0.869873C11.3471 1.75756 12.8481 2.78795 14.4912 3.48225C15.5681 3.93735 16.8506 3.90635 18.7895 4.21046C18.9707 5.57658 19.338 8.3464 19.7053 11.1162C20.1896 11.1757 20.6738 11.2353 21.1581 11.2948C21.6277 8.61206 22.0973 5.92934 22.5669 3.24661C22.9091 3.22976 23.2514 3.21288 23.5937 3.19603C23.5937 6.16659 23.5937 9.13717 23.591 12.8005ZM11.4653 10.9225C11.2107 8.96438 10.9561 7.00633 10.7014 5.04826C10.2623 5.1181 9.82326 5.18797 9.38417 5.25781C9.38417 11.6915 9.38417 18.1251 9.38417 24.5588C10.0775 24.5706 10.7708 24.5824 11.4642 24.5942C11.4642 20.478 11.4642 16.3619 11.4653 10.9225ZM15.0776 12.848C10.6648 19.2316 13.5465 25.6907 13.5995 32.1206C14.297 32.131 14.9945 32.1415 15.6921 32.152C15.6921 26.0143 15.6921 19.8766 15.0776 12.848Z" fill="#D4D3D0"/>
</svg>
