<svg width="143" height="58" viewBox="0 0 143 58" fill="none" xmlns="http://www.w3.org/2000/svg">
<path d="M128.757 0.270935C133.698 3.49974 137.935 6.59442 142.566 10.7408C142.923 26.9567 142.886 42.1209 142.848 57.285C137.77 53.8392 132.692 50.3935 126.573 46.4729C112.062 45.8355 98.5928 45.6729 84.8141 45.617C84.0579 45.9425 83.8475 46.3004 83.8979 46.7807C83.922 46.7639 83.968 46.7271 83.6302 46.6112C83.2924 46.4952 82.5933 46.6406 81.8797 46.5233C61.8574 46.4536 42.5487 46.5012 23.2401 46.5488C21.0906 46.142 18.9527 45.4687 16.7894 45.3735C5.84066 44.8916 2.16815 41.26 1.71963 30.2707C1.64875 28.5348 1.39342 26.8063 0.903705 24.578C0.69022 19.9095 0.79643 15.7376 1.27343 10.6212C1.78316 8.92275 1.92211 8.1686 2.06106 7.41446C4.317 5.45952 6.57304 3.50459 9.57365 1.38491C10.6337 1.11512 10.8628 0.912464 11.0054 0.612165C25.8449 0.4344 40.684 0.147859 55.5239 0.103574C79.6998 0.0314178 103.876 0.117503 128.757 0.270935ZM88.3535 11.9085C89.9847 11.7709 91.6158 11.6332 93.2469 11.4956C93.2188 11.286 93.1908 11.0764 93.1627 10.8668C68.7234 10.8668 44.2842 10.8668 19.8449 10.8668C19.8457 11.2142 19.8465 11.5615 19.8473 11.9088C42.2472 11.9088 64.6471 11.9088 88.3535 11.9085ZM45.2869 22.5149C61.2572 22.5149 77.2275 22.5149 93.1978 22.5149C93.1902 22.0099 93.1826 21.5048 93.1751 20.9998C80.8621 20.9998 68.5492 20.9998 56.2362 20.9998C44.0729 20.9998 31.9096 20.9998 19.7463 20.9998C19.7479 21.5048 19.7495 22.0099 19.751 22.5149C27.7586 22.5149 35.766 22.5149 45.2869 22.5149ZM20.3368 32.9228C44.6637 32.9228 68.9906 32.9228 93.3175 32.9228C93.3135 32.6964 93.3095 32.47 93.3055 32.2436C68.7656 32.2436 44.2257 32.2436 20.3368 32.9228Z" fill="white"/>
</svg>
