<svg width="251" height="237" viewBox="0 0 251 237" fill="none" xmlns="http://www.w3.org/2000/svg">
<path d="M250.405 113.538C250.653 139.687 245.455 163.741 231.58 185.539C216.855 208.672 196.695 225.067 170.324 234.831C168.734 235.074 167.919 235.315 167.105 235.557C167.105 235.557 167.042 235.576 166.676 235.712C165.876 236.069 165.509 236.371 165.207 236.754C164.588 236.824 163.969 236.894 162.356 236.847C158.223 230.414 159.353 225.406 164.835 222.232C167.877 220.471 170.972 218.674 174.257 217.486C180.318 215.293 182.607 211.524 182.174 204.923C180.397 177.888 178.994 150.827 177.606 123.768C177.369 119.15 174.864 117.599 170.864 117.48C164.581 117.294 158.294 117.246 151.787 116.627C150.153 111.945 148.74 107.775 147.448 103.082C149.83 97.6462 152.423 92.8502 154.184 87.7663C154.869 85.7915 153.676 83.1665 153.309 80.2243C152.614 77.2718 151.95 74.9328 151.531 72.157C165.332 55.0177 165.069 52.1383 148.789 37.9039C147.485 36.7636 145.864 35.615 145.251 34.1178C142.185 26.6186 136.594 22.6496 128.696 23.0187C123.234 23.274 117.735 24.5462 112.429 26.0055C92.3622 31.5246 91.4753 32.8347 91.3922 54.1235C90.367 57.3181 89.329 59.9064 88.7376 62.593C86.3001 73.6651 86.5265 84.4955 91.5875 94.975C95.6722 103.433 103.869 104.405 111.523 106.486C111.765 106.552 111.998 106.651 111.967 107.176C110.009 109.026 106.729 110.638 106.879 111.811C108.119 121.507 100.097 121.422 94.6428 123.977C90.5971 125.873 85.7205 126.782 85.5551 133.18C85.4431 134.282 85.421 134.918 84.9955 135.934C79.652 152.989 74.7734 169.682 69.7427 186.33C67.6199 193.355 64.0078 200.407 72.4174 205.331C70.63 208.66 69.3577 211.029 67.6267 214.252C72.0848 214.896 75.7699 215.427 79.3807 216.623C79.119 221.334 78.9315 225.382 78.1991 229.39C67.7885 222.817 57.9385 216.258 48.0485 209.76C44.8391 207.651 41.5251 205.702 38.2388 203.016C38.6981 197.115 39.5312 191.881 39.5775 186.64C39.6541 177.965 35.3463 173.744 26.7161 173.364C24.456 173.264 22.1907 173.284 19.8436 172.712C16.3313 160.252 11.886 148.497 9.87101 136.34C8.73224 129.469 6.75748 127.085 0.832306 127.453C10.5917 126.822 19.8688 126.828 29.0981 126.166C32.3696 125.931 36.5871 125.003 38.539 122.781C45.1567 115.246 45.8548 105.69 43.5583 96.535C40.9589 86.1728 36.9973 84.0161 26.013 83.9884C21.2602 83.9765 16.5072 83.9864 13.377 83.9864C15.9913 78.1072 18.7215 71.9672 22.1659 65.8075C34.1229 65.7752 45.3658 65.7625 57.1114 65.8487C62.6921 69.3934 67.7701 72.8392 73.0098 76.6257C73.5639 76.9437 73.971 76.9722 74.3393 76.8659C74.4434 76.8358 74.4707 76.4118 74.4712 76.1684C74.4957 63.6785 74.6202 51.1872 74.4571 38.6996C74.4164 35.5824 73.4468 32.4772 72.5378 29.0278C67.9347 25.5944 63.6979 22.4997 59.4611 19.405C84.8489 5.72891 112.004 -2.36812 140.728 0.932777C186.713 6.21744 221.178 29.5438 239.744 72.8389C245.126 85.3895 246.887 99.4929 250.405 113.538ZM191.058 69.4016C197.92 67.9091 201.317 63.2684 201.739 56.6342C202.133 50.4391 196.291 43.6033 188.852 41.7902C185.021 40.8563 180.854 41.2948 176.15 41.0819C177.074 44.6048 177.571 46.4997 178.068 48.3945C183.512 49.0222 188.149 50.8894 192.263 53.5607C193.137 54.1282 192.514 59.3519 191.891 59.4985C187.429 60.5479 182.79 60.839 176.82 61.532C176.557 62.0494 174.758 64.1999 174.57 66.4832C174.454 67.878 176.761 70.6955 178.076 70.7556C181.999 70.9349 185.97 70.0683 191.058 69.4016ZM166.426 81.9397C173.36 87.1542 173.487 80.5198 175.973 76.9371C173.387 75.3543 171.33 74.0948 167.789 71.9272C166.967 75.554 166.311 78.4469 166.426 81.9397Z" fill="#D4D4D4"/>
</svg>
