<svg width="98" height="140" viewBox="0 0 98 140" fill="none" xmlns="http://www.w3.org/2000/svg">
<path d="M67.0083 14.1398C73.2937 14.2462 79.5809 14.2939 85.8639 14.4801C89.8634 14.5985 92.3689 16.1497 92.6057 20.768C93.9934 47.8272 95.3964 74.8878 97.1733 101.923C97.6072 108.524 95.3181 112.293 89.2565 114.486C85.9713 115.674 82.8766 117.471 79.8345 119.232C74.3523 122.406 73.2223 127.414 76.8973 133.94C70.7054 136.087 63.978 138.024 56.1749 139.557C43.0147 138.031 30.9305 136.908 18.7213 135.098C18.236 131.161 17.9841 127.894 17.4977 124.662C14.239 103.015 10.9305 81.3753 7.63965 59.1004C6.66096 52.3655 5.9475 46.2038 4.60061 40.1839C3.79411 36.5794 1.99676 33.1967 0.644836 29.7143C0.720297 23.782 5.59687 22.8725 9.64257 20.9771C15.0964 18.4218 23.1186 18.5074 21.8784 8.81084C21.7284 7.63777 25.0089 6.02593 27.2159 3.78074C28.6021 2.74795 29.4716 2.55187 30.7138 2.83199C37.8477 2.32607 44.6091 1.34398 51.9676 0.416016C54.1618 0.499963 55.7587 0.529786 57.539 1.25405C57.8195 15.0339 56.841 28.237 58.2577 41.178C60.5745 62.3419 63.69 83.4911 67.9638 104.34C70.3956 116.203 71.6836 115.464 82.8465 110.76C90.33 107.608 91.1057 103.842 89.003 96.4476C81.236 69.1355 74.2733 41.5947 67.0083 14.1398Z" fill="black"/>
</svg>
