<svg width="424" height="479" viewBox="0 0 424 479" fill="none" xmlns="http://www.w3.org/2000/svg">
<path d="M74.4751 453.527C68.4259 444.496 62.2457 435.549 56.3506 426.419C33.3421 390.782 17.5545 352.147 7.60895 310.922C-1.0733 274.935 -0.0646097 238.421 0.202102 201.901C0.214228 200.241 1.12853 198.586 2.19559 196.526C12.681 206.012 24.6472 212.427 38.304 216.975C41.5503 217.176 45.0229 216.177 46.9099 217.477C54.1749 222.485 61.3515 219.855 69.1455 218.595C79.3832 216.13 89.1218 213.442 98.9206 211.315C99.0842 212.62 99.1876 213.364 99.1449 214.645C99.3554 217.324 99.712 219.466 100.145 222.08C101.707 224.141 103.192 225.729 105.168 227.72C106.866 228.414 108.073 228.957 109.281 228.96C135.185 229.015 161.09 229.046 186.995 228.941C188.852 228.933 190.706 227.844 192.932 226.889C198.492 221.395 200.366 205.536 195.984 200.229C194.624 198.582 191.803 198.141 189.086 196.879C165.331 196.332 142.142 196.054 118.184 195.767C141.622 153.083 139.44 120.366 112.102 94.8628C105.853 90.3243 100.253 85.4949 93.8664 82.179C78.7847 74.3482 62.3823 72.1541 45.5432 72.7228C60.4351 52.6741 77.5092 34.9088 99.0041 21.8003C115.985 11.4449 134.24 4.60017 153.979 1.72661C200 -4.97296 241.244 8.45022 280.466 31.1533C303.685 44.5936 324.403 61.29 345.428 79.3905C346.397 81.8063 346.652 83.5347 346.723 85.2707C347.171 96.2599 350.844 99.8915 361.793 100.373C363.956 100.469 366.094 101.142 368.394 102.049C373.013 107.816 377.481 113.084 381.526 118.547C380.811 118.843 380.518 118.944 379.549 118.902C366.112 118.701 353.349 118.505 340.589 118.648C335.167 118.709 329.752 119.478 323.809 120.025C316.538 123.023 315.77 129.049 315.682 135.205C315.523 146.24 315.595 157.279 315.645 168.315C315.655 170.632 315.987 172.947 316.264 176.424C322.847 171.484 328.225 167.448 334.295 163.498C360.656 163.463 386.327 163.343 412.62 163.338C413.657 163.539 414.071 163.623 414.358 164.25C414.566 166.549 414.901 168.306 415.202 170.707C418.233 183.983 421.298 196.615 423.654 209.267C396.624 209.329 370.304 209.369 343.4 209.401C334.955 209.336 331.22 214.055 330.738 221.101C329.387 240.863 328.262 260.646 327.508 280.439C327.165 289.426 330.324 292.062 340.54 292.66C354.976 292.765 368.721 292.857 382.727 293.369C383.655 299.369 384.322 304.949 384.288 310.623C374.167 309.975 364.673 309.736 355.343 308.37C342.486 306.488 329.753 303.756 316.878 300.823C310.143 277.095 303.496 253.931 296.647 230.278C288.839 226.497 281.232 223.204 273.671 219.363C273.046 214.648 272.827 211.406 278.314 209.536C283.459 207.783 287.91 203.996 293.317 201.294C296.571 201.701 299.174 201.918 301.705 201.982C301.633 201.83 301.955 202.033 301.955 202.033C301.955 202.033 301.617 202.008 301.539 201.319C301.584 197.884 301.202 195.001 301.909 192.415C306.276 176.453 301.727 162.6 291.224 150.797C283.822 142.478 275.103 135.408 261.75 139.597C254.373 141.141 247.691 142.71 240.478 144.261C236.655 146.705 233.362 149.167 229.623 151.795C227.742 153.642 226.307 155.324 224.711 157.199C224.549 157.391 224.416 157.875 223.985 158.18C220.895 165.377 218.236 172.268 215.449 179.698C215.194 181.335 215.068 182.433 214.655 183.901C215.038 185.678 210.758 189.894 216.72 188.879C217.382 190.636 217.72 192.135 218.649 193.003C227.884 201.638 238.973 206.04 251.141 207.548C248.997 211.946 247.206 215.835 244.842 219.817C235.123 222.638 226.069 225.752 216.799 227.952C211.143 229.295 208.516 232.571 206.543 237.6C198.927 257.012 191.039 276.318 182.67 295.68C176.342 295.765 174.322 299.083 174.377 304.371C174.441 310.565 174.379 316.76 173.663 322.985C152.317 323.036 131.68 322.931 111.046 323.141C103.504 323.217 100.147 327.175 100.267 334.676C100.382 341.804 103.634 345.272 110.89 345.589C116.919 345.852 122.962 345.812 128.993 346.559C129.007 350.73 129.026 354.25 129.035 358.482C128.989 376.356 128.953 393.517 128.422 410.49C115.52 401.463 98.5363 410.372 98.8409 427.554C99.1447 444.694 98.6835 461.847 98.0948 478.833C95.3527 476.86 93.0736 475.05 90.6864 472.552C90.3203 469.426 89.9092 466.992 89.8299 464.547C89.4455 452.7 85.9424 450.158 74.4751 453.527ZM93.413 257.14C80.1606 252.544 71.109 265.3 73.6706 273.867C75.6532 280.497 79.5779 284.822 86.9128 285.209C94.3593 285.602 99.9262 281.998 102.009 275.392C104.227 268.357 101.873 262.772 93.413 257.14ZM231.3 106.411C233.932 104.697 236.564 102.984 240.363 100.51C233.21 96.1447 227.305 92.5408 220.908 88.6366C220.908 97.3731 220.908 104.397 220.908 112.402C224.758 110.171 227.546 108.557 231.3 106.411Z" fill="#FFA2A2"/>
</svg>
