<svg width="25" height="34" viewBox="0 0 25 34" fill="none" xmlns="http://www.w3.org/2000/svg">
<path d="M0.86731 26.0405C3.51933 17.9041 6.17131 9.76761 8.82111 1.05143C8.81894 0.471703 8.75522 0.421106 9.35536 0.508983C13.1546 1.0006 16.3536 1.40434 19.5527 1.80806C20.527 2.13371 21.5013 2.45935 22.8824 2.68936C23.9531 4.93277 24.617 7.27179 24.8409 10.0177C22.5371 8.89409 20.6733 7.36358 17.3523 4.63648C16.4791 8.7736 15.8045 11.4129 15.3905 14.0925C14.9999 16.6208 14.6994 19.1907 14.6887 21.7437C14.6718 25.7274 14.9332 29.7123 15.0767 33.6967C15.0767 33.6967 14.7216 33.6085 14.5402 33.5841C12.7619 33.5298 11.1649 33.5 8.63449 33.0719C5.42312 30.4627 3.14521 28.2516 0.86731 26.0405Z" fill="#D9D4C4"/>
</svg>
