<svg width="120" height="41" viewBox="0 0 120 41" fill="none" xmlns="http://www.w3.org/2000/svg">
<path d="M14.1508 0.153062C44.659 0.136394 75.1671 0.0873336 105.675 0.121088C115.966 0.132464 119.279 3.42135 119.514 13.6028C119.614 17.8868 119.611 22.1769 119.515 26.461C119.269 37.4059 115.933 40.7857 104.728 40.8205C74.4725 40.9146 44.216 40.877 13.9599 40.8308C8.59543 40.8225 3.18873 40.6153 0.330529 33.4795C0.24203 26.5279 0.248087 20.8144 0.247808 15.101C0.247161 2.73358 1.86598 0.991579 14.1508 0.153062ZM49.4388 10.9004C64.9257 10.9004 80.4126 10.9004 95.8995 10.9004C95.8904 10.543 95.8812 10.1857 95.872 9.82833C71.3802 9.82833 46.8884 9.82833 22.3966 9.82833C22.3937 10.1857 22.3908 10.543 22.3878 10.9004C30.9001 10.9004 39.4123 10.9004 49.4388 10.9004ZM66.104 30.6138C51.6278 30.6138 37.1515 30.6138 22.6753 30.6138C22.685 30.9707 22.6948 31.3275 22.7046 31.6843C47.1936 31.6843 71.6826 31.6843 96.1716 31.6843C96.1744 31.3275 96.1772 30.9707 96.1801 30.6138C86.6597 30.6138 77.1393 30.6138 66.104 30.6138ZM66.104 21.5065C76.0317 21.5065 85.9594 21.5065 95.8871 21.5065C95.8728 21.1528 95.8584 20.7992 95.8441 20.4455C71.3706 20.4455 46.8971 20.4455 22.4235 20.4455C22.4228 20.7992 22.4221 21.1528 22.4214 21.5065C36.4772 21.5065 50.5332 21.5065 66.104 21.5065Z" fill="#FDFEFD"/>
</svg>
